<svg xmlns="http://www.w3.org/2000/svg" width="1400" height="500" viewBox="0 0 1400 500" role="img" aria-labelledby="t d">
  <title id="t">Programming languages and technical toolkit</title>
  <desc id="d">A grouped technical toolkit covering programming languages, AI and data, backend and databases, and delivery.</desc>
  <defs><linearGradient id="bg" x1="0" y1="0" x2="1" y2="1"><stop offset="0" stop-color="#F8FAFC"/><stop offset="1" stop-color="#F1F5F9"/></linearGradient><style>.mono{font-family:"SFMono-Regular","Cascadia Code","JetBrains Mono",ui-monospace,monospace}.disp{font-family:"Trebuchet MS",Verdana,Inter,"Segoe UI",Arial,sans-serif;font-weight:700}</style></defs>
  <rect width="1400" height="500" rx="20" fill="url(#bg)"/>
  <rect x="1" y="1" width="1398" height="498" rx="20" fill="none" stroke="#CBD5E1"/>
  <g class="mono">
    <rect x="30" y="30" width="660" height="210" rx="16" fill="#FFFFFF" stroke="#CBD5E1"/>
    <rect x="30" y="30" width="5" height="210" rx="2.5" fill="#0284C7"><animate attributeName="opacity" values="0.9;0.4;0.9" dur="3.5s" repeatCount="indefinite"/></rect>
    <text x="56" y="78" class="disp" font-size="23" fill="#0F172A">PROGRAMMING LANGUAGES</text>
    <circle cx="662" cy="70" r="4.5" fill="#0284C7"><animate attributeName="opacity" values="1;0.2;1" dur="2.4s" begin="0.0s" repeatCount="indefinite"/></circle>
    <g font-size="15"><rect x="54" y="112" width="110" height="34" rx="9" fill="#F1F5F9" stroke="#CBD5E1"/><rect x="68" y="121" width="16" height="16" rx="4" fill="#4B8BBE"/><rect x="68" y="121" width="16" height="16" rx="4" fill="#FFFFFF" opacity="0.10"/><text x="92" y="134" fill="#1E293B">Python</text><rect x="175" y="112" width="146" height="34" rx="9" fill="#F1F5F9" stroke="#CBD5E1"/><rect x="189" y="121" width="16" height="16" rx="4" fill="#CA8A04"/><rect x="189" y="121" width="16" height="16" rx="4" fill="#FFFFFF" opacity="0.10"/><text x="213" y="134" fill="#1E293B">JavaScript</text><rect x="332" y="112" width="146" height="34" rx="9" fill="#F1F5F9" stroke="#CBD5E1"/><rect x="346" y="121" width="16" height="16" rx="4" fill="#3178C6"/><rect x="346" y="121" width="16" height="16" rx="4" fill="#FFFFFF" opacity="0.10"/><text x="370" y="134" fill="#1E293B">TypeScript</text><rect x="489" y="112" width="83" height="34" rx="9" fill="#F1F5F9" stroke="#CBD5E1"/><rect x="503" y="121" width="16" height="16" rx="4" fill="#B45309"/><rect x="503" y="121" width="16" height="16" rx="4" fill="#FFFFFF" opacity="0.10"/><text x="527" y="134" fill="#1E293B">SQL</text><rect x="583" y="112" width="65" height="34" rx="9" fill="#F1F5F9" stroke="#CBD5E1"/><rect x="597" y="121" width="16" height="16" rx="4" fill="#5C7FBF"/><rect x="597" y="121" width="16" height="16" rx="4" fill="#FFFFFF" opacity="0.10"/><text x="621" y="134" fill="#1E293B">C</text></g>
    <g font-size="15"><rect x="54" y="156" width="92" height="34" rx="9" fill="#F1F5F9" stroke="#CBD5E1"/><rect x="68" y="165" width="16" height="16" rx="4" fill="#C2410C"/><rect x="68" y="165" width="16" height="16" rx="4" fill="#FFFFFF" opacity="0.10"/><text x="92" y="178" fill="#1E293B">Java</text><rect x="157" y="156" width="83" height="34" rx="9" fill="#F1F5F9" stroke="#CBD5E1"/><rect x="171" y="165" width="16" height="16" rx="4" fill="#7B4FB3"/><rect x="171" y="165" width="16" height="16" rx="4" fill="#FFFFFF" opacity="0.10"/><text x="195" y="178" fill="#1E293B">C#</text></g>
  </g>
  <g class="mono">
    <rect x="710" y="30" width="660" height="210" rx="16" fill="#FFFFFF" stroke="#CBD5E1"/>
    <rect x="710" y="30" width="5" height="210" rx="2.5" fill="#DB2777"><animate attributeName="opacity" values="0.9;0.4;0.9" dur="3.9s" repeatCount="indefinite"/></rect>
    <text x="736" y="78" class="disp" font-size="23" fill="#0F172A">AI &amp; DATA</text>
    <circle cx="1342" cy="70" r="4.5" fill="#DB2777"><animate attributeName="opacity" values="1;0.2;1" dur="2.4s" begin="0.3s" repeatCount="indefinite"/></circle>
    <g font-size="15"><rect x="734" y="112" width="110" height="34" rx="9" fill="#F1F5F9" stroke="#CBD5E1"/><rect x="748" y="121" width="16" height="16" rx="4" fill="#E70488"/><rect x="748" y="121" width="16" height="16" rx="4" fill="#FFFFFF" opacity="0.10"/><text x="772" y="134" fill="#1E293B">Pandas</text><rect x="855" y="112" width="164" height="34" rx="9" fill="#F1F5F9" stroke="#CBD5E1"/><rect x="869" y="121" width="16" height="16" rx="4" fill="#C2410C"/><rect x="869" y="121" width="16" height="16" rx="4" fill="#FFFFFF" opacity="0.10"/><text x="893" y="134" fill="#1E293B">Scikit-learn</text><rect x="1030" y="112" width="119" height="34" rx="9" fill="#F1F5F9" stroke="#CBD5E1"/><rect x="1044" y="121" width="16" height="16" rx="4" fill="#1EA0E0"/><rect x="1044" y="121" width="16" height="16" rx="4" fill="#FFFFFF" opacity="0.10"/><text x="1068" y="134" fill="#1E293B">XGBoost</text><rect x="1160" y="112" width="128" height="34" rx="9" fill="#F1F5F9" stroke="#CBD5E1"/><rect x="1174" y="121" width="16" height="16" rx="4" fill="#9BC53D"/><rect x="1174" y="121" width="16" height="16" rx="4" fill="#FFFFFF" opacity="0.10"/><text x="1198" y="134" fill="#1E293B">LightGBM</text><rect x="734" y="156" width="128" height="34" rx="9" fill="#F1F5F9" stroke="#CBD5E1"/><rect x="748" y="165" width="16" height="16" rx="4" fill="#CA8A04"/><rect x="748" y="165" width="16" height="16" rx="4" fill="#FFFFFF" opacity="0.10"/><text x="772" y="178" fill="#1E293B">CatBoost</text><rect x="873" y="156" width="101" height="34" rx="9" fill="#F1F5F9" stroke="#CBD5E1"/><rect x="887" y="165" width="16" height="16" rx="4" fill="#4DABCF"/><rect x="887" y="165" width="16" height="16" rx="4" fill="#FFFFFF" opacity="0.10"/><text x="911" y="178" fill="#1E293B">NumPy</text></g>
  </g>
  <g class="mono">
    <rect x="30" y="260" width="660" height="210" rx="16" fill="#FFFFFF" stroke="#CBD5E1"/>
    <rect x="30" y="260" width="5" height="210" rx="2.5" fill="#047857"><animate attributeName="opacity" values="0.9;0.4;0.9" dur="4.3s" repeatCount="indefinite"/></rect>
    <text x="56" y="308" class="disp" font-size="23" fill="#0F172A">BACKEND &amp; DB</text>
    <circle cx="662" cy="300" r="4.5" fill="#047857"><animate attributeName="opacity" values="1;0.2;1" dur="2.4s" begin="0.6s" repeatCount="indefinite"/></circle>
    <g font-size="15"><rect x="54" y="342" width="119" height="34" rx="9" fill="#F1F5F9" stroke="#CBD5E1"/><rect x="68" y="351" width="16" height="16" rx="4" fill="#05998B"/><rect x="68" y="351" width="16" height="16" rx="4" fill="#FFFFFF" opacity="0.10"/><text x="92" y="364" fill="#1E293B">FastAPI</text><rect x="184" y="342" width="119" height="34" rx="9" fill="#F1F5F9" stroke="#CBD5E1"/><rect x="198" y="351" width="16" height="16" rx="4" fill="#83CD29"/><rect x="198" y="351" width="16" height="16" rx="4" fill="#FFFFFF" opacity="0.10"/><text x="222" y="364" fill="#1E293B">Node.js</text><rect x="314" y="342" width="119" height="34" rx="9" fill="#F1F5F9" stroke="#CBD5E1"/><rect x="328" y="351" width="16" height="16" rx="4" fill="#6B7280"/><rect x="328" y="351" width="16" height="16" rx="4" fill="#FFFFFF" opacity="0.10"/><text x="352" y="364" fill="#1E293B">Express</text><rect x="444" y="342" width="146" height="34" rx="9" fill="#F1F5F9" stroke="#CBD5E1"/><rect x="458" y="351" width="16" height="16" rx="4" fill="#4169E1"/><rect x="458" y="351" width="16" height="16" rx="4" fill="#FFFFFF" opacity="0.10"/><text x="482" y="364" fill="#1E293B">PostgreSQL</text><rect x="54" y="386" width="101" height="34" rx="9" fill="#F1F5F9" stroke="#CBD5E1"/><rect x="68" y="395" width="16" height="16" rx="4" fill="#4479A1"/><rect x="68" y="395" width="16" height="16" rx="4" fill="#FFFFFF" opacity="0.10"/><text x="92" y="408" fill="#1E293B">MySQL</text><rect x="166" y="386" width="101" height="34" rx="9" fill="#F1F5F9" stroke="#CBD5E1"/><rect x="180" y="395" width="16" height="16" rx="4" fill="#DC382D"/><rect x="180" y="395" width="16" height="16" rx="4" fill="#FFFFFF" opacity="0.10"/><text x="204" y="408" fill="#1E293B">Redis</text></g>
  </g>
  <g class="mono">
    <rect x="710" y="260" width="660" height="210" rx="16" fill="#FFFFFF" stroke="#CBD5E1"/>
    <rect x="710" y="260" width="5" height="210" rx="2.5" fill="#7C3AED"><animate attributeName="opacity" values="0.9;0.4;0.9" dur="4.7s" repeatCount="indefinite"/></rect>
    <text x="736" y="308" class="disp" font-size="23" fill="#0F172A">DELIVERY</text>
    <circle cx="1342" cy="300" r="4.5" fill="#7C3AED"><animate attributeName="opacity" values="1;0.2;1" dur="2.4s" begin="0.8999999999999999s" repeatCount="indefinite"/></circle>
    <g font-size="15"><rect x="734" y="342" width="110" height="34" rx="9" fill="#F1F5F9" stroke="#CBD5E1"/><rect x="748" y="351" width="16" height="16" rx="4" fill="#2496ED"/><rect x="748" y="351" width="16" height="16" rx="4" fill="#FFFFFF" opacity="0.10"/><text x="772" y="364" fill="#1E293B">Docker</text><rect x="855" y="342" width="83" height="34" rx="9" fill="#F1F5F9" stroke="#CBD5E1"/><rect x="869" y="351" width="16" height="16" rx="4" fill="#F05032"/><rect x="869" y="351" width="16" height="16" rx="4" fill="#FFFFFF" opacity="0.10"/><text x="893" y="364" fill="#1E293B">Git</text><rect x="949" y="342" width="101" height="34" rx="9" fill="#F1F5F9" stroke="#CBD5E1"/><rect x="963" y="351" width="16" height="16" rx="4" fill="#CA8A04"/><rect x="963" y="351" width="16" height="16" rx="4" fill="#FFFFFF" opacity="0.10"/><text x="987" y="364" fill="#1E293B">Linux</text><rect x="1061" y="342" width="128" height="34" rx="9" fill="#F1F5F9" stroke="#CBD5E1"/><rect x="1075" y="351" width="16" height="16" rx="4" fill="#3ECF8E"/><rect x="1075" y="351" width="16" height="16" rx="4" fill="#FFFFFF" opacity="0.10"/><text x="1099" y="364" fill="#1E293B">Supabase</text><rect x="1200" y="342" width="92" height="34" rx="9" fill="#F1F5F9" stroke="#CBD5E1"/><rect x="1214" y="351" width="16" height="16" rx="4" fill="#475569"/><rect x="1214" y="351" width="16" height="16" rx="4" fill="#FFFFFF" opacity="0.10"/><text x="1238" y="364" fill="#1E293B">REST</text></g>
  </g>
</svg>
