<svg xmlns="http://www.w3.org/2000/svg" width="800" height="182.857" viewBox="0 0 1400 320" role="img" aria-labelledby="title desc">
  <title id="title">Current activity board</title><desc id="desc">Current focus across building, engineering, refining, and learning.</desc>
  <defs><style>.mono{font-family:"SFMono-Regular","Cascadia Code",monospace}.sans{font-family:Inter,"Segoe UI",Arial,sans-serif}</style></defs>
  <rect x="1" y="1" width="1398" height="318" rx="18" fill="#F8F6F1" stroke="#D7D1C6"/>
  <text x="44" y="43" class="mono" font-size="13" fill="#746F66" letter-spacing="1.9">ACTIVITY BOARD</text><circle cx="1274" cy="39" r="4" fill="#7D6C5D"/><text x="1290" y="44" class="mono" font-size="11" fill="#746F66" letter-spacing="1.4">IN MOTION</text>
  <g class="mono" font-size="10.5" fill="#8A847B" letter-spacing="1.5"><text x="45" y="82">MODE</text><text x="190" y="82">FOCUS</text><text x="930" y="82">STATE</text><text x="1160" y="82">RHYTHM</text></g><line x1="44" y1="94" x2="1356" y2="94" stroke="#D7D1C6"/>
  <g class="mono" font-size="12.5" fill="#191815">
    <text x="45" y="130" fill="#7D6C5D">BUILD</text><text x="190" y="130">Water anomaly detection system</text><rect x="920" y="109" width="126" height="31" rx="15.5" fill="#1B1A18"/><text x="983" y="130" text-anchor="middle" fill="#F8F6F1" font-size="10.5" letter-spacing="1.2">ACTIVE</text>
    <text x="45" y="178" fill="#7D6C5D">ENGINEER</text><text x="190" y="178">Predictive alerts and decision logic</text><rect x="920" y="157" width="126" height="31" rx="15.5" fill="#1B1A18"/><text x="983" y="178" text-anchor="middle" fill="#F8F6F1" font-size="10.5" letter-spacing="1.2">ACTIVE</text>
    <text x="45" y="226" fill="#7D6C5D">REFINE</text><text x="190" y="226">APIs, data pipelines, and deployment</text><rect x="920" y="205" width="126" height="31" rx="15.5" fill="#E9E4DB" stroke="#CFC7BB"/><text x="983" y="226" text-anchor="middle" fill="#393630" font-size="10.5" letter-spacing="1.2">ONGOING</text>
    <text x="45" y="274" fill="#7D6C5D">LEARN</text><text x="190" y="274">MLOps · PyTorch · Airflow · Kafka</text><rect x="920" y="253" width="126" height="31" rx="15.5" fill="#E9E4DB" stroke="#CFC7BB"/><text x="983" y="274" text-anchor="middle" fill="#393630" font-size="10.5" letter-spacing="1.2">EXPLORING</text>
  </g>
  <g transform="translate(1162 113)">
    <g fill="#1B1A18"><rect width="22" height="22" rx="4"/><rect x="30" width="22" height="22" rx="4"/><rect x="60" width="22" height="22" rx="4"/><rect x="90" width="22" height="22" rx="4"/></g><g fill="#7D6C5D"><rect x="120" width="22" height="22" rx="4"/><rect x="150" width="22" height="22" rx="4"/></g>
    <g transform="translate(0 48)"><g fill="#1B1A18"><rect width="22" height="22" rx="4"/><rect x="30" width="22" height="22" rx="4"/><rect x="60" width="22" height="22" rx="4"/></g><g fill="#7D6C5D"><rect x="90" width="22" height="22" rx="4"/><rect x="120" width="22" height="22" rx="4"/></g><rect x="150" width="22" height="22" rx="4" fill="#DED8CE"/></g>
    <g transform="translate(0 96)"><g fill="#7D6C5D"><rect width="22" height="22" rx="4"/><rect x="30" width="22" height="22" rx="4"/><rect x="60" width="22" height="22" rx="4"/></g><g fill="#DED8CE"><rect x="90" width="22" height="22" rx="4"/><rect x="120" width="22" height="22" rx="4"/><rect x="150" width="22" height="22" rx="4"/></g></g>
    <g transform="translate(0 144)"><g fill="#7D6C5D"><rect width="22" height="22" rx="4"/><rect x="30" width="22" height="22" rx="4"/></g><g fill="#DED8CE"><rect x="60" width="22" height="22" rx="4"/><rect x="90" width="22" height="22" rx="4"/><rect x="120" width="22" height="22" rx="4"/><rect x="150" width="22" height="22" rx="4"/></g></g>
  </g>
</svg>
