<svg xmlns="http://www.w3.org/2000/svg" width="1400" height="470" viewBox="0 0 1400 470" role="img" aria-labelledby="t d">
  <title id="t">Activity board</title>
  <desc id="d">A dashboard style activity panel with live stats, a contribution style grid and a session log.</desc>
  <defs>
    <linearGradient id="bg" x1="0" y1="0" x2="1" y2="1"><stop offset="0" stop-color="#0A0E1A"/><stop offset="1" stop-color="#0E1524"/></linearGradient>
    <filter id="glow" x="-60%" y="-60%" width="220%" height="220%"><feGaussianBlur stdDeviation="4" result="b"/><feMerge><feMergeNode in="b"/><feMergeNode in="SourceGraphic"/></feMerge></filter>
    <style>.mono{font-family:"SFMono-Regular","Cascadia Code","JetBrains Mono",ui-monospace,monospace}.disp{font-family:"Trebuchet MS",Verdana,Inter,"Segoe UI",Arial,sans-serif;font-weight:700}</style>
  </defs>
  <rect width="1400" height="470" rx="20" fill="url(#bg)"/>
  <rect x="1" y="1" width="1398" height="468" rx="20" fill="none" stroke="#1E293B"/>

  <!-- window bar -->
  <circle cx="40" cy="40" r="6" fill="#F472B6"/><circle cx="60" cy="40" r="6" fill="#FBBF24"/><circle cx="80" cy="40" r="6" fill="#A3E635"/>
  <text x="108" y="46" class="mono" font-size="14" fill="#5EEAD4">activity — live session</text>
  <g>
    <circle cx="1250" cy="40" r="5" fill="#A3E635" filter="url(#glow)"><animate attributeName="opacity" values="1;0.2;1" dur="1.5s" repeatCount="indefinite"/></circle>
    <text x="1266" y="45" class="mono" font-size="14" fill="#BEF264">ONLINE</text>
  </g>
  <line x1="20" y1="64" x2="1380" y2="64" stroke="#1E293B"/>

  <!-- stat tiles -->
  <g class="mono">
    <g transform="translate(30,86)">
      <rect width="316" height="96" rx="14" fill="#111827" stroke="#22D3EE" stroke-opacity="0.4"/>
      <text x="20" y="34" font-size="13" letter-spacing="2" fill="#64748B">CURRENT STREAK</text>
      <text x="20" y="78" class="disp" font-size="40" fill="#67E8F9" filter="url(#glow)">27 days</text>
      <text x="250" y="78" font-size="30">🔥</text>
    </g>
    <g transform="translate(360,86)">
      <rect width="316" height="96" rx="14" fill="#111827" stroke="#A3E635" stroke-opacity="0.4"/>
      <text x="20" y="34" font-size="13" letter-spacing="2" fill="#64748B">COMMITS / YEAR</text>
      <text x="20" y="78" class="disp" font-size="40" fill="#BEF264" filter="url(#glow)">1,240+</text>
      <text x="250" y="78" font-size="30">⚡</text>
    </g>
    <g transform="translate(690,86)">
      <rect width="316" height="96" rx="14" fill="#111827" stroke="#F472B6" stroke-opacity="0.4"/>
      <text x="20" y="34" font-size="13" letter-spacing="2" fill="#64748B">PROJECTS SHIPPED</text>
      <text x="20" y="78" class="disp" font-size="40" fill="#F9A8D4" filter="url(#glow)">12</text>
      <text x="250" y="78" font-size="30">🚀</text>
    </g>
    <g transform="translate(1020,86)">
      <rect width="350" height="96" rx="14" fill="#111827" stroke="#A78BFA" stroke-opacity="0.4"/>
      <text x="20" y="34" font-size="13" letter-spacing="2" fill="#64748B">FOCUS RIGHT NOW</text>
      <text x="20" y="78" class="disp" font-size="26" fill="#C4B5FD">anomaly detection</text>
    </g>
  </g>

  <!-- contribution grid -->
  <text x="30" y="222" class="mono" font-size="13" letter-spacing="2" fill="#64748B">LAST 20 WEEKS</text>
  <g transform="translate(30,236)">
    <!-- generated cells -->
    <rect x="0" y="0" width="12" height="12" rx="3" fill="#14211C"><animate attributeName="opacity" values="0.35;1;0.35" dur="3.2s" begin="0.00s" repeatCount="indefinite"/></rect>
    <rect x="0" y="16" width="12" height="12" rx="3" fill="#1E5245"><animate attributeName="opacity" values="0.35;1;0.35" dur="3.2s" begin="0.03s" repeatCount="indefinite"/></rect>
    <rect x="0" y="32" width="12" height="12" rx="3" fill="#43C59E"><animate attributeName="opacity" values="0.35;1;0.35" dur="3.2s" begin="0.06s" repeatCount="indefinite"/></rect>
    <rect x="0" y="48" width="12" height="12" rx="3" fill="#14211C"><animate attributeName="opacity" values="0.35;1;0.35" dur="3.2s" begin="0.09s" repeatCount="indefinite"/></rect>
    <rect x="0" y="64" width="12" height="12" rx="3" fill="#14211C"><animate attributeName="opacity" values="0.35;1;0.35" dur="3.2s" begin="0.12s" repeatCount="indefinite"/></rect>
    <rect x="0" y="80" width="12" height="12" rx="3" fill="#1E5245"><animate attributeName="opacity" values="0.35;1;0.35" dur="3.2s" begin="0.15s" repeatCount="indefinite"/></rect>
    <rect x="0" y="96" width="12" height="12" rx="3" fill="#14211C"><animate attributeName="opacity" values="0.35;1;0.35" dur="3.2s" begin="0.18s" repeatCount="indefinite"/></rect>
    <rect x="16" y="0" width="12" height="12" rx="3" fill="#14211C"><animate attributeName="opacity" values="0.35;1;0.35" dur="3.2s" begin="0.05s" repeatCount="indefinite"/></rect>
    <rect x="16" y="16" width="12" height="12" rx="3" fill="#1E5245"><animate attributeName="opacity" values="0.35;1;0.35" dur="3.2s" begin="0.08s" repeatCount="indefinite"/></rect>
    <rect x="16" y="32" width="12" height="12" rx="3" fill="#2E8B6F"><animate attributeName="opacity" values="0.35;1;0.35" dur="3.2s" begin="0.11s" repeatCount="indefinite"/></rect>
    <rect x="16" y="48" width="12" height="12" rx="3" fill="#14211C"><animate attributeName="opacity" values="0.35;1;0.35" dur="3.2s" begin="0.14s" repeatCount="indefinite"/></rect>
    <rect x="16" y="64" width="12" height="12" rx="3" fill="#14211C"><animate attributeName="opacity" values="0.35;1;0.35" dur="3.2s" begin="0.17s" repeatCount="indefinite"/></rect>
    <rect x="16" y="80" width="12" height="12" rx="3" fill="#14211C"><animate attributeName="opacity" values="0.35;1;0.35" dur="3.2s" begin="0.20s" repeatCount="indefinite"/></rect>
    <rect x="16" y="96" width="12" height="12" rx="3" fill="#2E8B6F"><animate attributeName="opacity" values="0.35;1;0.35" dur="3.2s" begin="0.23s" repeatCount="indefinite"/></rect>
    <rect x="32" y="0" width="12" height="12" rx="3" fill="#1E5245"><animate attributeName="opacity" values="0.35;1;0.35" dur="3.2s" begin="0.10s" repeatCount="indefinite"/></rect>
    <rect x="32" y="16" width="12" height="12" rx="3" fill="#14211C"><animate attributeName="opacity" values="0.35;1;0.35" dur="3.2s" begin="0.13s" repeatCount="indefinite"/></rect>
    <rect x="32" y="32" width="12" height="12" rx="3" fill="#5EEAD4"><animate attributeName="opacity" values="0.35;1;0.35" dur="3.2s" begin="0.16s" repeatCount="indefinite"/></rect>
    <rect x="32" y="48" width="12" height="12" rx="3" fill="#5EEAD4"><animate attributeName="opacity" values="0.35;1;0.35" dur="3.2s" begin="0.19s" repeatCount="indefinite"/></rect>
    <rect x="32" y="64" width="12" height="12" rx="3" fill="#1E5245"><animate attributeName="opacity" values="0.35;1;0.35" dur="3.2s" begin="0.22s" repeatCount="indefinite"/></rect>
    <rect x="32" y="80" width="12" height="12" rx="3" fill="#1E5245"><animate attributeName="opacity" values="0.35;1;0.35" dur="3.2s" begin="0.25s" repeatCount="indefinite"/></rect>
    <rect x="32" y="96" width="12" height="12" rx="3" fill="#14211C"><animate attributeName="opacity" values="0.35;1;0.35" dur="3.2s" begin="0.28s" repeatCount="indefinite"/></rect>
    <rect x="48" y="0" width="12" height="12" rx="3" fill="#14211C"><animate attributeName="opacity" values="0.35;1;0.35" dur="3.2s" begin="0.15s" repeatCount="indefinite"/></rect>
    <rect x="48" y="16" width="12" height="12" rx="3" fill="#14211C"><animate attributeName="opacity" values="0.35;1;0.35" dur="3.2s" begin="0.18s" repeatCount="indefinite"/></rect>
    <rect x="48" y="32" width="12" height="12" rx="3" fill="#14211C"><animate attributeName="opacity" values="0.35;1;0.35" dur="3.2s" begin="0.21s" repeatCount="indefinite"/></rect>
    <rect x="48" y="48" width="12" height="12" rx="3" fill="#14211C"><animate attributeName="opacity" values="0.35;1;0.35" dur="3.2s" begin="0.24s" repeatCount="indefinite"/></rect>
    <rect x="48" y="64" width="12" height="12" rx="3" fill="#14211C"><animate attributeName="opacity" values="0.35;1;0.35" dur="3.2s" begin="0.27s" repeatCount="indefinite"/></rect>
    <rect x="48" y="80" width="12" height="12" rx="3" fill="#14211C"><animate attributeName="opacity" values="0.35;1;0.35" dur="3.2s" begin="0.30s" repeatCount="indefinite"/></rect>
    <rect x="48" y="96" width="12" height="12" rx="3" fill="#14211C"><animate attributeName="opacity" values="0.35;1;0.35" dur="3.2s" begin="0.33s" repeatCount="indefinite"/></rect>
    <rect x="64" y="0" width="12" height="12" rx="3" fill="#14211C"><animate attributeName="opacity" values="0.35;1;0.35" dur="3.2s" begin="0.20s" repeatCount="indefinite"/></rect>
    <rect x="64" y="16" width="12" height="12" rx="3" fill="#2E8B6F"><animate attributeName="opacity" values="0.35;1;0.35" dur="3.2s" begin="0.23s" repeatCount="indefinite"/></rect>
    <rect x="64" y="32" width="12" height="12" rx="3" fill="#14211C"><animate attributeName="opacity" values="0.35;1;0.35" dur="3.2s" begin="0.26s" repeatCount="indefinite"/></rect>
    <rect x="64" y="48" width="12" height="12" rx="3" fill="#1E5245"><animate attributeName="opacity" values="0.35;1;0.35" dur="3.2s" begin="0.29s" repeatCount="indefinite"/></rect>
    <rect x="64" y="64" width="12" height="12" rx="3" fill="#14211C"><animate attributeName="opacity" values="0.35;1;0.35" dur="3.2s" begin="0.32s" repeatCount="indefinite"/></rect>
    <rect x="64" y="80" width="12" height="12" rx="3" fill="#1E5245"><animate attributeName="opacity" values="0.35;1;0.35" dur="3.2s" begin="0.35s" repeatCount="indefinite"/></rect>
    <rect x="64" y="96" width="12" height="12" rx="3" fill="#14211C"><animate attributeName="opacity" values="0.35;1;0.35" dur="3.2s" begin="0.38s" repeatCount="indefinite"/></rect>
    <rect x="80" y="0" width="12" height="12" rx="3" fill="#14211C"><animate attributeName="opacity" values="0.35;1;0.35" dur="3.2s" begin="0.25s" repeatCount="indefinite"/></rect>
    <rect x="80" y="16" width="12" height="12" rx="3" fill="#5EEAD4"><animate attributeName="opacity" values="0.35;1;0.35" dur="3.2s" begin="0.28s" repeatCount="indefinite"/></rect>
    <rect x="80" y="32" width="12" height="12" rx="3" fill="#5EEAD4"><animate attributeName="opacity" values="0.35;1;0.35" dur="3.2s" begin="0.31s" repeatCount="indefinite"/></rect>
    <rect x="80" y="48" width="12" height="12" rx="3" fill="#2E8B6F"><animate attributeName="opacity" values="0.35;1;0.35" dur="3.2s" begin="0.34s" repeatCount="indefinite"/></rect>
    <rect x="80" y="64" width="12" height="12" rx="3" fill="#1E5245"><animate attributeName="opacity" values="0.35;1;0.35" dur="3.2s" begin="0.37s" repeatCount="indefinite"/></rect>
    <rect x="80" y="80" width="12" height="12" rx="3" fill="#14211C"><animate attributeName="opacity" values="0.35;1;0.35" dur="3.2s" begin="0.40s" repeatCount="indefinite"/></rect>
    <rect x="80" y="96" width="12" height="12" rx="3" fill="#14211C"><animate attributeName="opacity" values="0.35;1;0.35" dur="3.2s" begin="0.43s" repeatCount="indefinite"/></rect>
    <rect x="96" y="0" width="12" height="12" rx="3" fill="#14211C"><animate attributeName="opacity" values="0.35;1;0.35" dur="3.2s" begin="0.30s" repeatCount="indefinite"/></rect>
    <rect x="96" y="16" width="12" height="12" rx="3" fill="#14211C"><animate attributeName="opacity" values="0.35;1;0.35" dur="3.2s" begin="0.33s" repeatCount="indefinite"/></rect>
    <rect x="96" y="32" width="12" height="12" rx="3" fill="#2E8B6F"><animate attributeName="opacity" values="0.35;1;0.35" dur="3.2s" begin="0.36s" repeatCount="indefinite"/></rect>
    <rect x="96" y="48" width="12" height="12" rx="3" fill="#14211C"><animate attributeName="opacity" values="0.35;1;0.35" dur="3.2s" begin="0.39s" repeatCount="indefinite"/></rect>
    <rect x="96" y="64" width="12" height="12" rx="3" fill="#2E8B6F"><animate attributeName="opacity" values="0.35;1;0.35" dur="3.2s" begin="0.42s" repeatCount="indefinite"/></rect>
    <rect x="96" y="80" width="12" height="12" rx="3" fill="#14211C"><animate attributeName="opacity" values="0.35;1;0.35" dur="3.2s" begin="0.45s" repeatCount="indefinite"/></rect>
    <rect x="96" y="96" width="12" height="12" rx="3" fill="#5EEAD4"><animate attributeName="opacity" values="0.35;1;0.35" dur="3.2s" begin="0.48s" repeatCount="indefinite"/></rect>
    <rect x="112" y="0" width="12" height="12" rx="3" fill="#2E8B6F"><animate attributeName="opacity" values="0.35;1;0.35" dur="3.2s" begin="0.35s" repeatCount="indefinite"/></rect>
    <rect x="112" y="16" width="12" height="12" rx="3" fill="#14211C"><animate attributeName="opacity" values="0.35;1;0.35" dur="3.2s" begin="0.38s" repeatCount="indefinite"/></rect>
    <rect x="112" y="32" width="12" height="12" rx="3" fill="#14211C"><animate attributeName="opacity" values="0.35;1;0.35" dur="3.2s" begin="0.41s" repeatCount="indefinite"/></rect>
    <rect x="112" y="48" width="12" height="12" rx="3" fill="#43C59E"><animate attributeName="opacity" values="0.35;1;0.35" dur="3.2s" begin="0.44s" repeatCount="indefinite"/></rect>
    <rect x="112" y="64" width="12" height="12" rx="3" fill="#14211C"><animate attributeName="opacity" values="0.35;1;0.35" dur="3.2s" begin="0.47s" repeatCount="indefinite"/></rect>
    <rect x="112" y="80" width="12" height="12" rx="3" fill="#5EEAD4"><animate attributeName="opacity" values="0.35;1;0.35" dur="3.2s" begin="0.50s" repeatCount="indefinite"/></rect>
    <rect x="112" y="96" width="12" height="12" rx="3" fill="#14211C"><animate attributeName="opacity" values="0.35;1;0.35" dur="3.2s" begin="0.53s" repeatCount="indefinite"/></rect>
    <rect x="128" y="0" width="12" height="12" rx="3" fill="#14211C"><animate attributeName="opacity" values="0.35;1;0.35" dur="3.2s" begin="0.40s" repeatCount="indefinite"/></rect>
    <rect x="128" y="16" width="12" height="12" rx="3" fill="#1E5245"><animate attributeName="opacity" values="0.35;1;0.35" dur="3.2s" begin="0.43s" repeatCount="indefinite"/></rect>
    <rect x="128" y="32" width="12" height="12" rx="3" fill="#2E8B6F"><animate attributeName="opacity" values="0.35;1;0.35" dur="3.2s" begin="0.46s" repeatCount="indefinite"/></rect>
    <rect x="128" y="48" width="12" height="12" rx="3" fill="#14211C"><animate attributeName="opacity" values="0.35;1;0.35" dur="3.2s" begin="0.49s" repeatCount="indefinite"/></rect>
    <rect x="128" y="64" width="12" height="12" rx="3" fill="#14211C"><animate attributeName="opacity" values="0.35;1;0.35" dur="3.2s" begin="0.52s" repeatCount="indefinite"/></rect>
    <rect x="128" y="80" width="12" height="12" rx="3" fill="#14211C"><animate attributeName="opacity" values="0.35;1;0.35" dur="3.2s" begin="0.55s" repeatCount="indefinite"/></rect>
    <rect x="128" y="96" width="12" height="12" rx="3" fill="#5EEAD4"><animate attributeName="opacity" values="0.35;1;0.35" dur="3.2s" begin="0.58s" repeatCount="indefinite"/></rect>
    <rect x="144" y="0" width="12" height="12" rx="3" fill="#2E8B6F"><animate attributeName="opacity" values="0.35;1;0.35" dur="3.2s" begin="0.45s" repeatCount="indefinite"/></rect>
    <rect x="144" y="16" width="12" height="12" rx="3" fill="#14211C"><animate attributeName="opacity" values="0.35;1;0.35" dur="3.2s" begin="0.48s" repeatCount="indefinite"/></rect>
    <rect x="144" y="32" width="12" height="12" rx="3" fill="#14211C"><animate attributeName="opacity" values="0.35;1;0.35" dur="3.2s" begin="0.51s" repeatCount="indefinite"/></rect>
    <rect x="144" y="48" width="12" height="12" rx="3" fill="#14211C"><animate attributeName="opacity" values="0.35;1;0.35" dur="3.2s" begin="0.54s" repeatCount="indefinite"/></rect>
    <rect x="144" y="64" width="12" height="12" rx="3" fill="#14211C"><animate attributeName="opacity" values="0.35;1;0.35" dur="3.2s" begin="0.57s" repeatCount="indefinite"/></rect>
    <rect x="144" y="80" width="12" height="12" rx="3" fill="#2E8B6F"><animate attributeName="opacity" values="0.35;1;0.35" dur="3.2s" begin="0.60s" repeatCount="indefinite"/></rect>
    <rect x="144" y="96" width="12" height="12" rx="3" fill="#14211C"><animate attributeName="opacity" values="0.35;1;0.35" dur="3.2s" begin="0.63s" repeatCount="indefinite"/></rect>
    <rect x="160" y="0" width="12" height="12" rx="3" fill="#1E5245"><animate attributeName="opacity" values="0.35;1;0.35" dur="3.2s" begin="0.50s" repeatCount="indefinite"/></rect>
    <rect x="160" y="16" width="12" height="12" rx="3" fill="#14211C"><animate attributeName="opacity" values="0.35;1;0.35" dur="3.2s" begin="0.53s" repeatCount="indefinite"/></rect>
    <rect x="160" y="32" width="12" height="12" rx="3" fill="#14211C"><animate attributeName="opacity" values="0.35;1;0.35" dur="3.2s" begin="0.56s" repeatCount="indefinite"/></rect>
    <rect x="160" y="48" width="12" height="12" rx="3" fill="#2E8B6F"><animate attributeName="opacity" values="0.35;1;0.35" dur="3.2s" begin="0.59s" repeatCount="indefinite"/></rect>
    <rect x="160" y="64" width="12" height="12" rx="3" fill="#14211C"><animate attributeName="opacity" values="0.35;1;0.35" dur="3.2s" begin="0.62s" repeatCount="indefinite"/></rect>
    <rect x="160" y="80" width="12" height="12" rx="3" fill="#1E5245"><animate attributeName="opacity" values="0.35;1;0.35" dur="3.2s" begin="0.65s" repeatCount="indefinite"/></rect>
    <rect x="160" y="96" width="12" height="12" rx="3" fill="#14211C"><animate attributeName="opacity" values="0.35;1;0.35" dur="3.2s" begin="0.68s" repeatCount="indefinite"/></rect>
    <rect x="176" y="0" width="12" height="12" rx="3" fill="#14211C"><animate attributeName="opacity" values="0.35;1;0.35" dur="3.2s" begin="0.55s" repeatCount="indefinite"/></rect>
    <rect x="176" y="16" width="12" height="12" rx="3" fill="#14211C"><animate attributeName="opacity" values="0.35;1;0.35" dur="3.2s" begin="0.58s" repeatCount="indefinite"/></rect>
    <rect x="176" y="32" width="12" height="12" rx="3" fill="#14211C"><animate attributeName="opacity" values="0.35;1;0.35" dur="3.2s" begin="0.61s" repeatCount="indefinite"/></rect>
    <rect x="176" y="48" width="12" height="12" rx="3" fill="#5EEAD4"><animate attributeName="opacity" values="0.35;1;0.35" dur="3.2s" begin="0.64s" repeatCount="indefinite"/></rect>
    <rect x="176" y="64" width="12" height="12" rx="3" fill="#2E8B6F"><animate attributeName="opacity" values="0.35;1;0.35" dur="3.2s" begin="0.67s" repeatCount="indefinite"/></rect>
    <rect x="176" y="80" width="12" height="12" rx="3" fill="#14211C"><animate attributeName="opacity" values="0.35;1;0.35" dur="3.2s" begin="0.70s" repeatCount="indefinite"/></rect>
    <rect x="176" y="96" width="12" height="12" rx="3" fill="#43C59E"><animate attributeName="opacity" values="0.35;1;0.35" dur="3.2s" begin="0.73s" repeatCount="indefinite"/></rect>
    <rect x="192" y="0" width="12" height="12" rx="3" fill="#14211C"><animate attributeName="opacity" values="0.35;1;0.35" dur="3.2s" begin="0.60s" repeatCount="indefinite"/></rect>
    <rect x="192" y="16" width="12" height="12" rx="3" fill="#14211C"><animate attributeName="opacity" values="0.35;1;0.35" dur="3.2s" begin="0.63s" repeatCount="indefinite"/></rect>
    <rect x="192" y="32" width="12" height="12" rx="3" fill="#43C59E"><animate attributeName="opacity" values="0.35;1;0.35" dur="3.2s" begin="0.66s" repeatCount="indefinite"/></rect>
    <rect x="192" y="48" width="12" height="12" rx="3" fill="#1E5245"><animate attributeName="opacity" values="0.35;1;0.35" dur="3.2s" begin="0.69s" repeatCount="indefinite"/></rect>
    <rect x="192" y="64" width="12" height="12" rx="3" fill="#14211C"><animate attributeName="opacity" values="0.35;1;0.35" dur="3.2s" begin="0.72s" repeatCount="indefinite"/></rect>
    <rect x="192" y="80" width="12" height="12" rx="3" fill="#5EEAD4"><animate attributeName="opacity" values="0.35;1;0.35" dur="3.2s" begin="0.75s" repeatCount="indefinite"/></rect>
    <rect x="192" y="96" width="12" height="12" rx="3" fill="#14211C"><animate attributeName="opacity" values="0.35;1;0.35" dur="3.2s" begin="0.78s" repeatCount="indefinite"/></rect>
    <rect x="208" y="0" width="12" height="12" rx="3" fill="#14211C"><animate attributeName="opacity" values="0.35;1;0.35" dur="3.2s" begin="0.65s" repeatCount="indefinite"/></rect>
    <rect x="208" y="16" width="12" height="12" rx="3" fill="#2E8B6F"><animate attributeName="opacity" values="0.35;1;0.35" dur="3.2s" begin="0.68s" repeatCount="indefinite"/></rect>
    <rect x="208" y="32" width="12" height="12" rx="3" fill="#14211C"><animate attributeName="opacity" values="0.35;1;0.35" dur="3.2s" begin="0.71s" repeatCount="indefinite"/></rect>
    <rect x="208" y="48" width="12" height="12" rx="3" fill="#14211C"><animate attributeName="opacity" values="0.35;1;0.35" dur="3.2s" begin="0.74s" repeatCount="indefinite"/></rect>
    <rect x="208" y="64" width="12" height="12" rx="3" fill="#14211C"><animate attributeName="opacity" values="0.35;1;0.35" dur="3.2s" begin="0.77s" repeatCount="indefinite"/></rect>
    <rect x="208" y="80" width="12" height="12" rx="3" fill="#14211C"><animate attributeName="opacity" values="0.35;1;0.35" dur="3.2s" begin="0.80s" repeatCount="indefinite"/></rect>
    <rect x="208" y="96" width="12" height="12" rx="3" fill="#1E5245"><animate attributeName="opacity" values="0.35;1;0.35" dur="3.2s" begin="0.83s" repeatCount="indefinite"/></rect>
    <rect x="224" y="0" width="12" height="12" rx="3" fill="#14211C"><animate attributeName="opacity" values="0.35;1;0.35" dur="3.2s" begin="0.70s" repeatCount="indefinite"/></rect>
    <rect x="224" y="16" width="12" height="12" rx="3" fill="#1E5245"><animate attributeName="opacity" values="0.35;1;0.35" dur="3.2s" begin="0.73s" repeatCount="indefinite"/></rect>
    <rect x="224" y="32" width="12" height="12" rx="3" fill="#14211C"><animate attributeName="opacity" values="0.35;1;0.35" dur="3.2s" begin="0.76s" repeatCount="indefinite"/></rect>
    <rect x="224" y="48" width="12" height="12" rx="3" fill="#14211C"><animate attributeName="opacity" values="0.35;1;0.35" dur="3.2s" begin="0.79s" repeatCount="indefinite"/></rect>
    <rect x="224" y="64" width="12" height="12" rx="3" fill="#5EEAD4"><animate attributeName="opacity" values="0.35;1;0.35" dur="3.2s" begin="0.82s" repeatCount="indefinite"/></rect>
    <rect x="224" y="80" width="12" height="12" rx="3" fill="#14211C"><animate attributeName="opacity" values="0.35;1;0.35" dur="3.2s" begin="0.85s" repeatCount="indefinite"/></rect>
    <rect x="224" y="96" width="12" height="12" rx="3" fill="#1E5245"><animate attributeName="opacity" values="0.35;1;0.35" dur="3.2s" begin="0.88s" repeatCount="indefinite"/></rect>
    <rect x="240" y="0" width="12" height="12" rx="3" fill="#43C59E"><animate attributeName="opacity" values="0.35;1;0.35" dur="3.2s" begin="0.75s" repeatCount="indefinite"/></rect>
    <rect x="240" y="16" width="12" height="12" rx="3" fill="#14211C"><animate attributeName="opacity" values="0.35;1;0.35" dur="3.2s" begin="0.78s" repeatCount="indefinite"/></rect>
    <rect x="240" y="32" width="12" height="12" rx="3" fill="#14211C"><animate attributeName="opacity" values="0.35;1;0.35" dur="3.2s" begin="0.81s" repeatCount="indefinite"/></rect>
    <rect x="240" y="48" width="12" height="12" rx="3" fill="#43C59E"><animate attributeName="opacity" values="0.35;1;0.35" dur="3.2s" begin="0.84s" repeatCount="indefinite"/></rect>
    <rect x="240" y="64" width="12" height="12" rx="3" fill="#2E8B6F"><animate attributeName="opacity" values="0.35;1;0.35" dur="3.2s" begin="0.87s" repeatCount="indefinite"/></rect>
    <rect x="240" y="80" width="12" height="12" rx="3" fill="#14211C"><animate attributeName="opacity" values="0.35;1;0.35" dur="3.2s" begin="0.90s" repeatCount="indefinite"/></rect>
    <rect x="240" y="96" width="12" height="12" rx="3" fill="#14211C"><animate attributeName="opacity" values="0.35;1;0.35" dur="3.2s" begin="0.93s" repeatCount="indefinite"/></rect>
    <rect x="256" y="0" width="12" height="12" rx="3" fill="#2E8B6F"><animate attributeName="opacity" values="0.35;1;0.35" dur="3.2s" begin="0.80s" repeatCount="indefinite"/></rect>
    <rect x="256" y="16" width="12" height="12" rx="3" fill="#5EEAD4"><animate attributeName="opacity" values="0.35;1;0.35" dur="3.2s" begin="0.83s" repeatCount="indefinite"/></rect>
    <rect x="256" y="32" width="12" height="12" rx="3" fill="#14211C"><animate attributeName="opacity" values="0.35;1;0.35" dur="3.2s" begin="0.86s" repeatCount="indefinite"/></rect>
    <rect x="256" y="48" width="12" height="12" rx="3" fill="#5EEAD4"><animate attributeName="opacity" values="0.35;1;0.35" dur="3.2s" begin="0.89s" repeatCount="indefinite"/></rect>
    <rect x="256" y="64" width="12" height="12" rx="3" fill="#43C59E"><animate attributeName="opacity" values="0.35;1;0.35" dur="3.2s" begin="0.92s" repeatCount="indefinite"/></rect>
    <rect x="256" y="80" width="12" height="12" rx="3" fill="#1E5245"><animate attributeName="opacity" values="0.35;1;0.35" dur="3.2s" begin="0.95s" repeatCount="indefinite"/></rect>
    <rect x="256" y="96" width="12" height="12" rx="3" fill="#14211C"><animate attributeName="opacity" values="0.35;1;0.35" dur="3.2s" begin="0.98s" repeatCount="indefinite"/></rect>
    <rect x="272" y="0" width="12" height="12" rx="3" fill="#14211C"><animate attributeName="opacity" values="0.35;1;0.35" dur="3.2s" begin="0.85s" repeatCount="indefinite"/></rect>
    <rect x="272" y="16" width="12" height="12" rx="3" fill="#14211C"><animate attributeName="opacity" values="0.35;1;0.35" dur="3.2s" begin="0.88s" repeatCount="indefinite"/></rect>
    <rect x="272" y="32" width="12" height="12" rx="3" fill="#5EEAD4"><animate attributeName="opacity" values="0.35;1;0.35" dur="3.2s" begin="0.91s" repeatCount="indefinite"/></rect>
    <rect x="272" y="48" width="12" height="12" rx="3" fill="#14211C"><animate attributeName="opacity" values="0.35;1;0.35" dur="3.2s" begin="0.94s" repeatCount="indefinite"/></rect>
    <rect x="272" y="64" width="12" height="12" rx="3" fill="#1E5245"><animate attributeName="opacity" values="0.35;1;0.35" dur="3.2s" begin="0.97s" repeatCount="indefinite"/></rect>
    <rect x="272" y="80" width="12" height="12" rx="3" fill="#14211C"><animate attributeName="opacity" values="0.35;1;0.35" dur="3.2s" begin="1.00s" repeatCount="indefinite"/></rect>
    <rect x="272" y="96" width="12" height="12" rx="3" fill="#2E8B6F"><animate attributeName="opacity" values="0.35;1;0.35" dur="3.2s" begin="1.03s" repeatCount="indefinite"/></rect>
    <rect x="288" y="0" width="12" height="12" rx="3" fill="#1E5245"><animate attributeName="opacity" values="0.35;1;0.35" dur="3.2s" begin="0.90s" repeatCount="indefinite"/></rect>
    <rect x="288" y="16" width="12" height="12" rx="3" fill="#14211C"><animate attributeName="opacity" values="0.35;1;0.35" dur="3.2s" begin="0.93s" repeatCount="indefinite"/></rect>
    <rect x="288" y="32" width="12" height="12" rx="3" fill="#14211C"><animate attributeName="opacity" values="0.35;1;0.35" dur="3.2s" begin="0.96s" repeatCount="indefinite"/></rect>
    <rect x="288" y="48" width="12" height="12" rx="3" fill="#2E8B6F"><animate attributeName="opacity" values="0.35;1;0.35" dur="3.2s" begin="0.99s" repeatCount="indefinite"/></rect>
    <rect x="288" y="64" width="12" height="12" rx="3" fill="#14211C"><animate attributeName="opacity" values="0.35;1;0.35" dur="3.2s" begin="1.02s" repeatCount="indefinite"/></rect>
    <rect x="288" y="80" width="12" height="12" rx="3" fill="#14211C"><animate attributeName="opacity" values="0.35;1;0.35" dur="3.2s" begin="1.05s" repeatCount="indefinite"/></rect>
    <rect x="288" y="96" width="12" height="12" rx="3" fill="#1E5245"><animate attributeName="opacity" values="0.35;1;0.35" dur="3.2s" begin="1.08s" repeatCount="indefinite"/></rect>
    <rect x="304" y="0" width="12" height="12" rx="3" fill="#43C59E"><animate attributeName="opacity" values="0.35;1;0.35" dur="3.2s" begin="0.95s" repeatCount="indefinite"/></rect>
    <rect x="304" y="16" width="12" height="12" rx="3" fill="#1E5245"><animate attributeName="opacity" values="0.35;1;0.35" dur="3.2s" begin="0.98s" repeatCount="indefinite"/></rect>
    <rect x="304" y="32" width="12" height="12" rx="3" fill="#14211C"><animate attributeName="opacity" values="0.35;1;0.35" dur="3.2s" begin="1.01s" repeatCount="indefinite"/></rect>
    <rect x="304" y="48" width="12" height="12" rx="3" fill="#43C59E"><animate attributeName="opacity" values="0.35;1;0.35" dur="3.2s" begin="1.04s" repeatCount="indefinite"/></rect>
    <rect x="304" y="64" width="12" height="12" rx="3" fill="#14211C"><animate attributeName="opacity" values="0.35;1;0.35" dur="3.2s" begin="1.07s" repeatCount="indefinite"/></rect>
    <rect x="304" y="80" width="12" height="12" rx="3" fill="#14211C"><animate attributeName="opacity" values="0.35;1;0.35" dur="3.2s" begin="1.10s" repeatCount="indefinite"/></rect>
    <rect x="304" y="96" width="12" height="12" rx="3" fill="#14211C"><animate attributeName="opacity" values="0.35;1;0.35" dur="3.2s" begin="1.13s" repeatCount="indefinite"/></rect>
  </g>
  <g class="mono" font-size="12" fill="#475569" transform="translate(30,470)">
    <text x="740" y="-8">less</text>
    <rect x="778" y="-18" width="12" height="12" rx="3" fill="#14211C"/>
    <rect x="794" y="-18" width="12" height="12" rx="3" fill="#1E5245"/>
    <rect x="810" y="-18" width="12" height="12" rx="3" fill="#2E8B6F"/>
    <rect x="826" y="-18" width="12" height="12" rx="3" fill="#43C59E"/>
    <rect x="842" y="-18" width="12" height="12" rx="3" fill="#5EEAD4"/>
    <text x="862" y="-8">more</text>
  </g>

  <!-- session log -->
  <g class="mono" font-size="14" transform="translate(30,392)">
    <text x="0" y="0" font-size="13" letter-spacing="2" fill="#64748B">~/session.log</text>
    <text x="0" y="26" fill="#5EEAD4">14:22 <tspan fill="#A3E635">✓ push</tspan> <tspan fill="#94A3B8">water-anomaly · feature pipeline v3</tspan></text>
    <text x="600" y="26" fill="#5EEAD4">13:05 <tspan fill="#F472B6">✎ test</tspan> <tspan fill="#94A3B8">car-price · added drift check</tspan></text>
    <text x="0" y="52" fill="#5EEAD4">11:40 <tspan fill="#A78BFA">⬢ build</tspan> <tspan fill="#94A3B8">nac-system · token refresh flow</tspan></text>
    <text x="600" y="52" fill="#5EEAD4">09:18 <tspan fill="#FBBF24">★ read</tspan> <tspan fill="#94A3B8">paper · isolation forests at scale</tspan></text>
  </g>
</svg>
