<svg xmlns="http://www.w3.org/2000/svg" width="1400" height="470" viewBox="0 0 1400 470" role="img" aria-labelledby="t d">
  <title id="t">Activity board</title>
  <desc id="d">A dashboard style activity panel with live stats, a contribution style grid and a session log.</desc>
  <defs>
    <linearGradient id="bg" x1="0" y1="0" x2="1" y2="1"><stop offset="0" stop-color="#0A0E17"/><stop offset="1" stop-color="#0C1320"/></linearGradient>
    <linearGradient id="shine" x1="0" y1="0" x2="1" y2="0"><stop offset="0" stop-color="#34D399" stop-opacity="0"/><stop offset="0.5" stop-color="#34D399" stop-opacity="0.06"/><stop offset="1" stop-color="#34D399" stop-opacity="0"/></linearGradient>
    <filter id="glow" x="-40%" y="-40%" width="180%" height="180%"><feGaussianBlur stdDeviation="2.6" result="b"/><feMerge><feMergeNode in="b"/><feMergeNode in="SourceGraphic"/></feMerge></filter>
    <clipPath id="clip"><rect width="1400" height="470" rx="20"/></clipPath>
    <style>.mono{font-family:"SFMono-Regular","Cascadia Code","JetBrains Mono",ui-monospace,monospace}.disp{font-family:"Trebuchet MS",Verdana,Inter,"Segoe UI",Arial,sans-serif;font-weight:700}</style>
  </defs>
  <g clip-path="url(#clip)">
    <rect width="1400" height="470" fill="url(#bg)"/>
    <rect x="-340" y="0" width="300" height="470" fill="url(#shine)"><animate attributeName="x" values="-340;1400;1400" dur="8s" repeatCount="indefinite"/></rect>

    <circle cx="40" cy="40" r="6" fill="#F472B6" opacity="0.85"/><circle cx="60" cy="40" r="6" fill="#FBBF24" opacity="0.85"/><circle cx="80" cy="40" r="6" fill="#34D399" opacity="0.85"/>
    <text x="108" y="46" class="mono" font-size="14" fill="#5EEAD4">activity — live session</text>
    <circle cx="1250" cy="40" r="5" fill="#34D399"><animate attributeName="opacity" values="1;0.25;1" dur="2s" repeatCount="indefinite"/></circle>
    <text x="1266" y="45" class="mono" font-size="14" fill="#6EE7B7">ONLINE</text>
    <line x1="20" y1="64" x2="1380" y2="64" stroke="#1B2537"/>

    <g class="mono">
      <g transform="translate(30,86)">
        <rect width="316" height="96" rx="14" fill="#0C111C" stroke="#1B2537"/>
        <rect x="0" y="0" width="4" height="96" rx="2" fill="#38BDF8"/>
        <text x="24" y="34" font-size="13" letter-spacing="2" fill="#5A6678">CURRENT STREAK</text>
        <text x="24" y="78" class="disp" font-size="38" fill="#7DD3FC" filter="url(#glow)">27 days</text>
        <text x="256" y="76" font-size="28">🔥</text>
      </g>
      <g transform="translate(360,86)">
        <rect width="316" height="96" rx="14" fill="#0C111C" stroke="#1B2537"/>
        <rect x="0" y="0" width="4" height="96" rx="2" fill="#34D399"/>
        <text x="24" y="34" font-size="13" letter-spacing="2" fill="#5A6678">COMMITS / YEAR</text>
        <text x="24" y="78" class="disp" font-size="38" fill="#6EE7B7" filter="url(#glow)">1,240+</text>
        <text x="256" y="76" font-size="28">⚡</text>
      </g>
      <g transform="translate(690,86)">
        <rect width="316" height="96" rx="14" fill="#0C111C" stroke="#1B2537"/>
        <rect x="0" y="0" width="4" height="96" rx="2" fill="#F472B6"/>
        <text x="24" y="34" font-size="13" letter-spacing="2" fill="#5A6678">PROJECTS SHIPPED</text>
        <text x="24" y="78" class="disp" font-size="38" fill="#F9A8D4" filter="url(#glow)">12</text>
        <text x="256" y="76" font-size="28">🚀</text>
      </g>
      <g transform="translate(1020,86)">
        <rect width="350" height="96" rx="14" fill="#0C111C" stroke="#1B2537"/>
        <rect x="0" y="0" width="4" height="96" rx="2" fill="#A78BFA"/>
        <text x="24" y="34" font-size="13" letter-spacing="2" fill="#5A6678">FOCUS RIGHT NOW</text>
        <text x="24" y="76" class="disp" font-size="26" fill="#C4B5FD">anomaly detection</text>
      </g>
    </g>

    <text x="30" y="222" class="mono" font-size="13" letter-spacing="2" fill="#5A6678">LAST 20 WEEKS</text>
    <g transform="translate(30,236)">
      <rect x="0" y="0" width="12" height="12" rx="3" fill="#111C22"><animate attributeName="opacity" values="0.5;1;0.5" dur="4.5s" begin="0.00s" repeatCount="indefinite"/></rect><rect x="0" y="16" width="12" height="12" rx="3" fill="#183A38"><animate attributeName="opacity" values="0.5;1;0.5" dur="4.5s" begin="0.03s" repeatCount="indefinite"/></rect><rect x="0" y="32" width="12" height="12" rx="3" fill="#2E8B7A"><animate attributeName="opacity" values="0.5;1;0.5" dur="4.5s" begin="0.06s" repeatCount="indefinite"/></rect><rect x="0" y="48" width="12" height="12" rx="3" fill="#111C22"><animate attributeName="opacity" values="0.5;1;0.5" dur="4.5s" begin="0.09s" repeatCount="indefinite"/></rect><rect x="0" y="64" width="12" height="12" rx="3" fill="#111C22"><animate attributeName="opacity" values="0.5;1;0.5" dur="4.5s" begin="0.12s" repeatCount="indefinite"/></rect><rect x="0" y="80" width="12" height="12" rx="3" fill="#183A38"><animate attributeName="opacity" values="0.5;1;0.5" dur="4.5s" begin="0.15s" repeatCount="indefinite"/></rect><rect x="0" y="96" width="12" height="12" rx="3" fill="#111C22"><animate attributeName="opacity" values="0.5;1;0.5" dur="4.5s" begin="0.18s" repeatCount="indefinite"/></rect><rect x="16" y="0" width="12" height="12" rx="3" fill="#111C22"><animate attributeName="opacity" values="0.5;1;0.5" dur="4.5s" begin="0.05s" repeatCount="indefinite"/></rect><rect x="16" y="16" width="12" height="12" rx="3" fill="#183A38"><animate attributeName="opacity" values="0.5;1;0.5" dur="4.5s" begin="0.08s" repeatCount="indefinite"/></rect><rect x="16" y="32" width="12" height="12" rx="3" fill="#1F5C52"><animate attributeName="opacity" values="0.5;1;0.5" dur="4.5s" begin="0.11s" repeatCount="indefinite"/></rect><rect x="16" y="48" width="12" height="12" rx="3" fill="#111C22"><animate attributeName="opacity" values="0.5;1;0.5" dur="4.5s" begin="0.14s" repeatCount="indefinite"/></rect><rect x="16" y="64" width="12" height="12" rx="3" fill="#111C22"><animate attributeName="opacity" values="0.5;1;0.5" dur="4.5s" begin="0.17s" repeatCount="indefinite"/></rect><rect x="16" y="80" width="12" height="12" rx="3" fill="#111C22"><animate attributeName="opacity" values="0.5;1;0.5" dur="4.5s" begin="0.20s" repeatCount="indefinite"/></rect><rect x="16" y="96" width="12" height="12" rx="3" fill="#1F5C52"><animate attributeName="opacity" values="0.5;1;0.5" dur="4.5s" begin="0.23s" repeatCount="indefinite"/></rect><rect x="32" y="0" width="12" height="12" rx="3" fill="#183A38"><animate attributeName="opacity" values="0.5;1;0.5" dur="4.5s" begin="0.10s" repeatCount="indefinite"/></rect><rect x="32" y="16" width="12" height="12" rx="3" fill="#111C22"><animate attributeName="opacity" values="0.5;1;0.5" dur="4.5s" begin="0.13s" repeatCount="indefinite"/></rect><rect x="32" y="32" width="12" height="12" rx="3" fill="#43C5AE"><animate attributeName="opacity" values="0.5;1;0.5" dur="4.5s" begin="0.16s" repeatCount="indefinite"/></rect><rect x="32" y="48" width="12" height="12" rx="3" fill="#43C5AE"><animate attributeName="opacity" values="0.5;1;0.5" dur="4.5s" begin="0.19s" repeatCount="indefinite"/></rect><rect x="32" y="64" width="12" height="12" rx="3" fill="#183A38"><animate attributeName="opacity" values="0.5;1;0.5" dur="4.5s" begin="0.22s" repeatCount="indefinite"/></rect><rect x="32" y="80" width="12" height="12" rx="3" fill="#183A38"><animate attributeName="opacity" values="0.5;1;0.5" dur="4.5s" begin="0.25s" repeatCount="indefinite"/></rect><rect x="32" y="96" width="12" height="12" rx="3" fill="#111C22"><animate attributeName="opacity" values="0.5;1;0.5" dur="4.5s" begin="0.28s" repeatCount="indefinite"/></rect><rect x="48" y="0" width="12" height="12" rx="3" fill="#111C22"><animate attributeName="opacity" values="0.5;1;0.5" dur="4.5s" begin="0.15s" repeatCount="indefinite"/></rect><rect x="48" y="16" width="12" height="12" rx="3" fill="#111C22"><animate attributeName="opacity" values="0.5;1;0.5" dur="4.5s" begin="0.18s" repeatCount="indefinite"/></rect><rect x="48" y="32" width="12" height="12" rx="3" fill="#111C22"><animate attributeName="opacity" values="0.5;1;0.5" dur="4.5s" begin="0.21s" repeatCount="indefinite"/></rect><rect x="48" y="48" width="12" height="12" rx="3" fill="#111C22"><animate attributeName="opacity" values="0.5;1;0.5" dur="4.5s" begin="0.24s" repeatCount="indefinite"/></rect><rect x="48" y="64" width="12" height="12" rx="3" fill="#111C22"><animate attributeName="opacity" values="0.5;1;0.5" dur="4.5s" begin="0.27s" repeatCount="indefinite"/></rect><rect x="48" y="80" width="12" height="12" rx="3" fill="#111C22"><animate attributeName="opacity" values="0.5;1;0.5" dur="4.5s" begin="0.30s" repeatCount="indefinite"/></rect><rect x="48" y="96" width="12" height="12" rx="3" fill="#111C22"><animate attributeName="opacity" values="0.5;1;0.5" dur="4.5s" begin="0.33s" repeatCount="indefinite"/></rect><rect x="64" y="0" width="12" height="12" rx="3" fill="#111C22"><animate attributeName="opacity" values="0.5;1;0.5" dur="4.5s" begin="0.20s" repeatCount="indefinite"/></rect><rect x="64" y="16" width="12" height="12" rx="3" fill="#1F5C52"><animate attributeName="opacity" values="0.5;1;0.5" dur="4.5s" begin="0.23s" repeatCount="indefinite"/></rect><rect x="64" y="32" width="12" height="12" rx="3" fill="#111C22"><animate attributeName="opacity" values="0.5;1;0.5" dur="4.5s" begin="0.26s" repeatCount="indefinite"/></rect><rect x="64" y="48" width="12" height="12" rx="3" fill="#183A38"><animate attributeName="opacity" values="0.5;1;0.5" dur="4.5s" begin="0.29s" repeatCount="indefinite"/></rect><rect x="64" y="64" width="12" height="12" rx="3" fill="#111C22"><animate attributeName="opacity" values="0.5;1;0.5" dur="4.5s" begin="0.32s" repeatCount="indefinite"/></rect><rect x="64" y="80" width="12" height="12" rx="3" fill="#183A38"><animate attributeName="opacity" values="0.5;1;0.5" dur="4.5s" begin="0.35s" repeatCount="indefinite"/></rect><rect x="64" y="96" width="12" height="12" rx="3" fill="#111C22"><animate attributeName="opacity" values="0.5;1;0.5" dur="4.5s" begin="0.38s" repeatCount="indefinite"/></rect><rect x="80" y="0" width="12" height="12" rx="3" fill="#111C22"><animate attributeName="opacity" values="0.5;1;0.5" dur="4.5s" begin="0.25s" repeatCount="indefinite"/></rect><rect x="80" y="16" width="12" height="12" rx="3" fill="#43C5AE"><animate attributeName="opacity" values="0.5;1;0.5" dur="4.5s" begin="0.28s" repeatCount="indefinite"/></rect><rect x="80" y="32" width="12" height="12" rx="3" fill="#43C5AE"><animate attributeName="opacity" values="0.5;1;0.5" dur="4.5s" begin="0.31s" repeatCount="indefinite"/></rect><rect x="80" y="48" width="12" height="12" rx="3" fill="#1F5C52"><animate attributeName="opacity" values="0.5;1;0.5" dur="4.5s" begin="0.34s" repeatCount="indefinite"/></rect><rect x="80" y="64" width="12" height="12" rx="3" fill="#183A38"><animate attributeName="opacity" values="0.5;1;0.5" dur="4.5s" begin="0.37s" repeatCount="indefinite"/></rect><rect x="80" y="80" width="12" height="12" rx="3" fill="#111C22"><animate attributeName="opacity" values="0.5;1;0.5" dur="4.5s" begin="0.40s" repeatCount="indefinite"/></rect><rect x="80" y="96" width="12" height="12" rx="3" fill="#111C22"><animate attributeName="opacity" values="0.5;1;0.5" dur="4.5s" begin="0.43s" repeatCount="indefinite"/></rect><rect x="96" y="0" width="12" height="12" rx="3" fill="#111C22"><animate attributeName="opacity" values="0.5;1;0.5" dur="4.5s" begin="0.30s" repeatCount="indefinite"/></rect><rect x="96" y="16" width="12" height="12" rx="3" fill="#111C22"><animate attributeName="opacity" values="0.5;1;0.5" dur="4.5s" begin="0.33s" repeatCount="indefinite"/></rect><rect x="96" y="32" width="12" height="12" rx="3" fill="#1F5C52"><animate attributeName="opacity" values="0.5;1;0.5" dur="4.5s" begin="0.36s" repeatCount="indefinite"/></rect><rect x="96" y="48" width="12" height="12" rx="3" fill="#111C22"><animate attributeName="opacity" values="0.5;1;0.5" dur="4.5s" begin="0.39s" repeatCount="indefinite"/></rect><rect x="96" y="64" width="12" height="12" rx="3" fill="#1F5C52"><animate attributeName="opacity" values="0.5;1;0.5" dur="4.5s" begin="0.42s" repeatCount="indefinite"/></rect><rect x="96" y="80" width="12" height="12" rx="3" fill="#111C22"><animate attributeName="opacity" values="0.5;1;0.5" dur="4.5s" begin="0.45s" repeatCount="indefinite"/></rect><rect x="96" y="96" width="12" height="12" rx="3" fill="#43C5AE"><animate attributeName="opacity" values="0.5;1;0.5" dur="4.5s" begin="0.48s" repeatCount="indefinite"/></rect><rect x="112" y="0" width="12" height="12" rx="3" fill="#1F5C52"><animate attributeName="opacity" values="0.5;1;0.5" dur="4.5s" begin="0.35s" repeatCount="indefinite"/></rect><rect x="112" y="16" width="12" height="12" rx="3" fill="#111C22"><animate attributeName="opacity" values="0.5;1;0.5" dur="4.5s" begin="0.38s" repeatCount="indefinite"/></rect><rect x="112" y="32" width="12" height="12" rx="3" fill="#111C22"><animate attributeName="opacity" values="0.5;1;0.5" dur="4.5s" begin="0.41s" repeatCount="indefinite"/></rect><rect x="112" y="48" width="12" height="12" rx="3" fill="#2E8B7A"><animate attributeName="opacity" values="0.5;1;0.5" dur="4.5s" begin="0.44s" repeatCount="indefinite"/></rect><rect x="112" y="64" width="12" height="12" rx="3" fill="#111C22"><animate attributeName="opacity" values="0.5;1;0.5" dur="4.5s" begin="0.47s" repeatCount="indefinite"/></rect><rect x="112" y="80" width="12" height="12" rx="3" fill="#43C5AE"><animate attributeName="opacity" values="0.5;1;0.5" dur="4.5s" begin="0.50s" repeatCount="indefinite"/></rect><rect x="112" y="96" width="12" height="12" rx="3" fill="#111C22"><animate attributeName="opacity" values="0.5;1;0.5" dur="4.5s" begin="0.53s" repeatCount="indefinite"/></rect><rect x="128" y="0" width="12" height="12" rx="3" fill="#111C22"><animate attributeName="opacity" values="0.5;1;0.5" dur="4.5s" begin="0.40s" repeatCount="indefinite"/></rect><rect x="128" y="16" width="12" height="12" rx="3" fill="#183A38"><animate attributeName="opacity" values="0.5;1;0.5" dur="4.5s" begin="0.43s" repeatCount="indefinite"/></rect><rect x="128" y="32" width="12" height="12" rx="3" fill="#1F5C52"><animate attributeName="opacity" values="0.5;1;0.5" dur="4.5s" begin="0.46s" repeatCount="indefinite"/></rect><rect x="128" y="48" width="12" height="12" rx="3" fill="#111C22"><animate attributeName="opacity" values="0.5;1;0.5" dur="4.5s" begin="0.49s" repeatCount="indefinite"/></rect><rect x="128" y="64" width="12" height="12" rx="3" fill="#111C22"><animate attributeName="opacity" values="0.5;1;0.5" dur="4.5s" begin="0.52s" repeatCount="indefinite"/></rect><rect x="128" y="80" width="12" height="12" rx="3" fill="#111C22"><animate attributeName="opacity" values="0.5;1;0.5" dur="4.5s" begin="0.55s" repeatCount="indefinite"/></rect><rect x="128" y="96" width="12" height="12" rx="3" fill="#43C5AE"><animate attributeName="opacity" values="0.5;1;0.5" dur="4.5s" begin="0.58s" repeatCount="indefinite"/></rect><rect x="144" y="0" width="12" height="12" rx="3" fill="#1F5C52"><animate attributeName="opacity" values="0.5;1;0.5" dur="4.5s" begin="0.45s" repeatCount="indefinite"/></rect><rect x="144" y="16" width="12" height="12" rx="3" fill="#111C22"><animate attributeName="opacity" values="0.5;1;0.5" dur="4.5s" begin="0.48s" repeatCount="indefinite"/></rect><rect x="144" y="32" width="12" height="12" rx="3" fill="#111C22"><animate attributeName="opacity" values="0.5;1;0.5" dur="4.5s" begin="0.51s" repeatCount="indefinite"/></rect><rect x="144" y="48" width="12" height="12" rx="3" fill="#111C22"><animate attributeName="opacity" values="0.5;1;0.5" dur="4.5s" begin="0.54s" repeatCount="indefinite"/></rect><rect x="144" y="64" width="12" height="12" rx="3" fill="#111C22"><animate attributeName="opacity" values="0.5;1;0.5" dur="4.5s" begin="0.57s" repeatCount="indefinite"/></rect><rect x="144" y="80" width="12" height="12" rx="3" fill="#1F5C52"><animate attributeName="opacity" values="0.5;1;0.5" dur="4.5s" begin="0.60s" repeatCount="indefinite"/></rect><rect x="144" y="96" width="12" height="12" rx="3" fill="#111C22"><animate attributeName="opacity" values="0.5;1;0.5" dur="4.5s" begin="0.63s" repeatCount="indefinite"/></rect><rect x="160" y="0" width="12" height="12" rx="3" fill="#183A38"><animate attributeName="opacity" values="0.5;1;0.5" dur="4.5s" begin="0.50s" repeatCount="indefinite"/></rect><rect x="160" y="16" width="12" height="12" rx="3" fill="#111C22"><animate attributeName="opacity" values="0.5;1;0.5" dur="4.5s" begin="0.53s" repeatCount="indefinite"/></rect><rect x="160" y="32" width="12" height="12" rx="3" fill="#111C22"><animate attributeName="opacity" values="0.5;1;0.5" dur="4.5s" begin="0.56s" repeatCount="indefinite"/></rect><rect x="160" y="48" width="12" height="12" rx="3" fill="#1F5C52"><animate attributeName="opacity" values="0.5;1;0.5" dur="4.5s" begin="0.59s" repeatCount="indefinite"/></rect><rect x="160" y="64" width="12" height="12" rx="3" fill="#111C22"><animate attributeName="opacity" values="0.5;1;0.5" dur="4.5s" begin="0.62s" repeatCount="indefinite"/></rect><rect x="160" y="80" width="12" height="12" rx="3" fill="#183A38"><animate attributeName="opacity" values="0.5;1;0.5" dur="4.5s" begin="0.65s" repeatCount="indefinite"/></rect><rect x="160" y="96" width="12" height="12" rx="3" fill="#111C22"><animate attributeName="opacity" values="0.5;1;0.5" dur="4.5s" begin="0.68s" repeatCount="indefinite"/></rect><rect x="176" y="0" width="12" height="12" rx="3" fill="#111C22"><animate attributeName="opacity" values="0.5;1;0.5" dur="4.5s" begin="0.55s" repeatCount="indefinite"/></rect><rect x="176" y="16" width="12" height="12" rx="3" fill="#111C22"><animate attributeName="opacity" values="0.5;1;0.5" dur="4.5s" begin="0.58s" repeatCount="indefinite"/></rect><rect x="176" y="32" width="12" height="12" rx="3" fill="#111C22"><animate attributeName="opacity" values="0.5;1;0.5" dur="4.5s" begin="0.61s" repeatCount="indefinite"/></rect><rect x="176" y="48" width="12" height="12" rx="3" fill="#43C5AE"><animate attributeName="opacity" values="0.5;1;0.5" dur="4.5s" begin="0.64s" repeatCount="indefinite"/></rect><rect x="176" y="64" width="12" height="12" rx="3" fill="#1F5C52"><animate attributeName="opacity" values="0.5;1;0.5" dur="4.5s" begin="0.67s" repeatCount="indefinite"/></rect><rect x="176" y="80" width="12" height="12" rx="3" fill="#111C22"><animate attributeName="opacity" values="0.5;1;0.5" dur="4.5s" begin="0.70s" repeatCount="indefinite"/></rect><rect x="176" y="96" width="12" height="12" rx="3" fill="#2E8B7A"><animate attributeName="opacity" values="0.5;1;0.5" dur="4.5s" begin="0.73s" repeatCount="indefinite"/></rect><rect x="192" y="0" width="12" height="12" rx="3" fill="#111C22"><animate attributeName="opacity" values="0.5;1;0.5" dur="4.5s" begin="0.60s" repeatCount="indefinite"/></rect><rect x="192" y="16" width="12" height="12" rx="3" fill="#111C22"><animate attributeName="opacity" values="0.5;1;0.5" dur="4.5s" begin="0.63s" repeatCount="indefinite"/></rect><rect x="192" y="32" width="12" height="12" rx="3" fill="#2E8B7A"><animate attributeName="opacity" values="0.5;1;0.5" dur="4.5s" begin="0.66s" repeatCount="indefinite"/></rect><rect x="192" y="48" width="12" height="12" rx="3" fill="#183A38"><animate attributeName="opacity" values="0.5;1;0.5" dur="4.5s" begin="0.69s" repeatCount="indefinite"/></rect><rect x="192" y="64" width="12" height="12" rx="3" fill="#111C22"><animate attributeName="opacity" values="0.5;1;0.5" dur="4.5s" begin="0.72s" repeatCount="indefinite"/></rect><rect x="192" y="80" width="12" height="12" rx="3" fill="#43C5AE"><animate attributeName="opacity" values="0.5;1;0.5" dur="4.5s" begin="0.75s" repeatCount="indefinite"/></rect><rect x="192" y="96" width="12" height="12" rx="3" fill="#111C22"><animate attributeName="opacity" values="0.5;1;0.5" dur="4.5s" begin="0.78s" repeatCount="indefinite"/></rect><rect x="208" y="0" width="12" height="12" rx="3" fill="#111C22"><animate attributeName="opacity" values="0.5;1;0.5" dur="4.5s" begin="0.65s" repeatCount="indefinite"/></rect><rect x="208" y="16" width="12" height="12" rx="3" fill="#1F5C52"><animate attributeName="opacity" values="0.5;1;0.5" dur="4.5s" begin="0.68s" repeatCount="indefinite"/></rect><rect x="208" y="32" width="12" height="12" rx="3" fill="#111C22"><animate attributeName="opacity" values="0.5;1;0.5" dur="4.5s" begin="0.71s" repeatCount="indefinite"/></rect><rect x="208" y="48" width="12" height="12" rx="3" fill="#111C22"><animate attributeName="opacity" values="0.5;1;0.5" dur="4.5s" begin="0.74s" repeatCount="indefinite"/></rect><rect x="208" y="64" width="12" height="12" rx="3" fill="#111C22"><animate attributeName="opacity" values="0.5;1;0.5" dur="4.5s" begin="0.77s" repeatCount="indefinite"/></rect><rect x="208" y="80" width="12" height="12" rx="3" fill="#111C22"><animate attributeName="opacity" values="0.5;1;0.5" dur="4.5s" begin="0.80s" repeatCount="indefinite"/></rect><rect x="208" y="96" width="12" height="12" rx="3" fill="#183A38"><animate attributeName="opacity" values="0.5;1;0.5" dur="4.5s" begin="0.83s" repeatCount="indefinite"/></rect><rect x="224" y="0" width="12" height="12" rx="3" fill="#111C22"><animate attributeName="opacity" values="0.5;1;0.5" dur="4.5s" begin="0.70s" repeatCount="indefinite"/></rect><rect x="224" y="16" width="12" height="12" rx="3" fill="#183A38"><animate attributeName="opacity" values="0.5;1;0.5" dur="4.5s" begin="0.73s" repeatCount="indefinite"/></rect><rect x="224" y="32" width="12" height="12" rx="3" fill="#111C22"><animate attributeName="opacity" values="0.5;1;0.5" dur="4.5s" begin="0.76s" repeatCount="indefinite"/></rect><rect x="224" y="48" width="12" height="12" rx="3" fill="#111C22"><animate attributeName="opacity" values="0.5;1;0.5" dur="4.5s" begin="0.79s" repeatCount="indefinite"/></rect><rect x="224" y="64" width="12" height="12" rx="3" fill="#43C5AE"><animate attributeName="opacity" values="0.5;1;0.5" dur="4.5s" begin="0.82s" repeatCount="indefinite"/></rect><rect x="224" y="80" width="12" height="12" rx="3" fill="#111C22"><animate attributeName="opacity" values="0.5;1;0.5" dur="4.5s" begin="0.85s" repeatCount="indefinite"/></rect><rect x="224" y="96" width="12" height="12" rx="3" fill="#183A38"><animate attributeName="opacity" values="0.5;1;0.5" dur="4.5s" begin="0.88s" repeatCount="indefinite"/></rect><rect x="240" y="0" width="12" height="12" rx="3" fill="#2E8B7A"><animate attributeName="opacity" values="0.5;1;0.5" dur="4.5s" begin="0.75s" repeatCount="indefinite"/></rect><rect x="240" y="16" width="12" height="12" rx="3" fill="#111C22"><animate attributeName="opacity" values="0.5;1;0.5" dur="4.5s" begin="0.78s" repeatCount="indefinite"/></rect><rect x="240" y="32" width="12" height="12" rx="3" fill="#111C22"><animate attributeName="opacity" values="0.5;1;0.5" dur="4.5s" begin="0.81s" repeatCount="indefinite"/></rect><rect x="240" y="48" width="12" height="12" rx="3" fill="#2E8B7A"><animate attributeName="opacity" values="0.5;1;0.5" dur="4.5s" begin="0.84s" repeatCount="indefinite"/></rect><rect x="240" y="64" width="12" height="12" rx="3" fill="#1F5C52"><animate attributeName="opacity" values="0.5;1;0.5" dur="4.5s" begin="0.87s" repeatCount="indefinite"/></rect><rect x="240" y="80" width="12" height="12" rx="3" fill="#111C22"><animate attributeName="opacity" values="0.5;1;0.5" dur="4.5s" begin="0.90s" repeatCount="indefinite"/></rect><rect x="240" y="96" width="12" height="12" rx="3" fill="#111C22"><animate attributeName="opacity" values="0.5;1;0.5" dur="4.5s" begin="0.93s" repeatCount="indefinite"/></rect><rect x="256" y="0" width="12" height="12" rx="3" fill="#1F5C52"><animate attributeName="opacity" values="0.5;1;0.5" dur="4.5s" begin="0.80s" repeatCount="indefinite"/></rect><rect x="256" y="16" width="12" height="12" rx="3" fill="#43C5AE"><animate attributeName="opacity" values="0.5;1;0.5" dur="4.5s" begin="0.83s" repeatCount="indefinite"/></rect><rect x="256" y="32" width="12" height="12" rx="3" fill="#111C22"><animate attributeName="opacity" values="0.5;1;0.5" dur="4.5s" begin="0.86s" repeatCount="indefinite"/></rect><rect x="256" y="48" width="12" height="12" rx="3" fill="#43C5AE"><animate attributeName="opacity" values="0.5;1;0.5" dur="4.5s" begin="0.89s" repeatCount="indefinite"/></rect><rect x="256" y="64" width="12" height="12" rx="3" fill="#2E8B7A"><animate attributeName="opacity" values="0.5;1;0.5" dur="4.5s" begin="0.92s" repeatCount="indefinite"/></rect><rect x="256" y="80" width="12" height="12" rx="3" fill="#183A38"><animate attributeName="opacity" values="0.5;1;0.5" dur="4.5s" begin="0.95s" repeatCount="indefinite"/></rect><rect x="256" y="96" width="12" height="12" rx="3" fill="#111C22"><animate attributeName="opacity" values="0.5;1;0.5" dur="4.5s" begin="0.98s" repeatCount="indefinite"/></rect><rect x="272" y="0" width="12" height="12" rx="3" fill="#111C22"><animate attributeName="opacity" values="0.5;1;0.5" dur="4.5s" begin="0.85s" repeatCount="indefinite"/></rect><rect x="272" y="16" width="12" height="12" rx="3" fill="#111C22"><animate attributeName="opacity" values="0.5;1;0.5" dur="4.5s" begin="0.88s" repeatCount="indefinite"/></rect><rect x="272" y="32" width="12" height="12" rx="3" fill="#43C5AE"><animate attributeName="opacity" values="0.5;1;0.5" dur="4.5s" begin="0.91s" repeatCount="indefinite"/></rect><rect x="272" y="48" width="12" height="12" rx="3" fill="#111C22"><animate attributeName="opacity" values="0.5;1;0.5" dur="4.5s" begin="0.94s" repeatCount="indefinite"/></rect><rect x="272" y="64" width="12" height="12" rx="3" fill="#183A38"><animate attributeName="opacity" values="0.5;1;0.5" dur="4.5s" begin="0.97s" repeatCount="indefinite"/></rect><rect x="272" y="80" width="12" height="12" rx="3" fill="#111C22"><animate attributeName="opacity" values="0.5;1;0.5" dur="4.5s" begin="1.00s" repeatCount="indefinite"/></rect><rect x="272" y="96" width="12" height="12" rx="3" fill="#1F5C52"><animate attributeName="opacity" values="0.5;1;0.5" dur="4.5s" begin="1.03s" repeatCount="indefinite"/></rect><rect x="288" y="0" width="12" height="12" rx="3" fill="#183A38"><animate attributeName="opacity" values="0.5;1;0.5" dur="4.5s" begin="0.90s" repeatCount="indefinite"/></rect><rect x="288" y="16" width="12" height="12" rx="3" fill="#111C22"><animate attributeName="opacity" values="0.5;1;0.5" dur="4.5s" begin="0.93s" repeatCount="indefinite"/></rect><rect x="288" y="32" width="12" height="12" rx="3" fill="#111C22"><animate attributeName="opacity" values="0.5;1;0.5" dur="4.5s" begin="0.96s" repeatCount="indefinite"/></rect><rect x="288" y="48" width="12" height="12" rx="3" fill="#1F5C52"><animate attributeName="opacity" values="0.5;1;0.5" dur="4.5s" begin="0.99s" repeatCount="indefinite"/></rect><rect x="288" y="64" width="12" height="12" rx="3" fill="#111C22"><animate attributeName="opacity" values="0.5;1;0.5" dur="4.5s" begin="1.02s" repeatCount="indefinite"/></rect><rect x="288" y="80" width="12" height="12" rx="3" fill="#111C22"><animate attributeName="opacity" values="0.5;1;0.5" dur="4.5s" begin="1.05s" repeatCount="indefinite"/></rect><rect x="288" y="96" width="12" height="12" rx="3" fill="#183A38"><animate attributeName="opacity" values="0.5;1;0.5" dur="4.5s" begin="1.08s" repeatCount="indefinite"/></rect><rect x="304" y="0" width="12" height="12" rx="3" fill="#2E8B7A"><animate attributeName="opacity" values="0.5;1;0.5" dur="4.5s" begin="0.95s" repeatCount="indefinite"/></rect><rect x="304" y="16" width="12" height="12" rx="3" fill="#183A38"><animate attributeName="opacity" values="0.5;1;0.5" dur="4.5s" begin="0.98s" repeatCount="indefinite"/></rect><rect x="304" y="32" width="12" height="12" rx="3" fill="#111C22"><animate attributeName="opacity" values="0.5;1;0.5" dur="4.5s" begin="1.01s" repeatCount="indefinite"/></rect><rect x="304" y="48" width="12" height="12" rx="3" fill="#2E8B7A"><animate attributeName="opacity" values="0.5;1;0.5" dur="4.5s" begin="1.04s" repeatCount="indefinite"/></rect><rect x="304" y="64" width="12" height="12" rx="3" fill="#111C22"><animate attributeName="opacity" values="0.5;1;0.5" dur="4.5s" begin="1.07s" repeatCount="indefinite"/></rect><rect x="304" y="80" width="12" height="12" rx="3" fill="#111C22"><animate attributeName="opacity" values="0.5;1;0.5" dur="4.5s" begin="1.10s" repeatCount="indefinite"/></rect><rect x="304" y="96" width="12" height="12" rx="3" fill="#111C22"><animate attributeName="opacity" values="0.5;1;0.5" dur="4.5s" begin="1.13s" repeatCount="indefinite"/></rect>
    </g>
    <g class="mono" font-size="12" fill="#475569" transform="translate(30,470)">
      <text x="740" y="-8">less</text>
      <rect x="778" y="-18" width="12" height="12" rx="3" fill="#111C22"/>
      <rect x="794" y="-18" width="12" height="12" rx="3" fill="#183A38"/>
      <rect x="810" y="-18" width="12" height="12" rx="3" fill="#1F5C52"/>
      <rect x="826" y="-18" width="12" height="12" rx="3" fill="#2E8B7A"/>
      <rect x="842" y="-18" width="12" height="12" rx="3" fill="#43C5AE"/>
      <text x="862" y="-8">more</text>
    </g>

    <g class="mono" font-size="14" transform="translate(30,392)">
      <text x="0" y="0" font-size="13" letter-spacing="2" fill="#5A6678">~/session.log</text>
      <text x="0" y="26" fill="#5EEAD4">14:22 <tspan fill="#6EE7B7">✓ push</tspan> <tspan fill="#8B98A9">water-anomaly · feature pipeline v3</tspan></text>
      <text x="600" y="26" fill="#5EEAD4">13:05 <tspan fill="#F9A8D4">✎ test</tspan> <tspan fill="#8B98A9">car-price · added drift check</tspan></text>
      <text x="0" y="52" fill="#5EEAD4">11:40 <tspan fill="#C4B5FD">⬢ build</tspan> <tspan fill="#8B98A9">nac-system · token refresh flow</tspan></text>
      <text x="600" y="52" fill="#5EEAD4">09:18 <tspan fill="#FCD34D">★ read</tspan> <tspan fill="#8B98A9">paper · isolation forests at scale</tspan></text>
    </g>
  </g>
  <rect x="1" y="1" width="1398" height="468" rx="20" fill="none" stroke="#1B2537"/>
</svg>
