<svg xmlns="http://www.w3.org/2000/svg" width="800" height="228.571" viewBox="0 0 1400 400" role="img" aria-labelledby="title desc">
  <title id="title">Kaan Güner — Computer Engineering, AI and Data Systems</title>
  <desc id="desc">A restrained editorial profile header in warm neutral tones.</desc>
  <defs>
    <linearGradient id="canvas" x1="0" y1="0" x2="1" y2="1">
      <stop offset="0" stop-color="#F8F6F1"/>
      <stop offset="1" stop-color="#F1EDE5"/>
    </linearGradient>
    <style>
      .serif { font-family: Georgia, "Times New Roman", serif; }
      .mono { font-family: "SFMono-Regular", "Cascadia Code", "JetBrains Mono", monospace; }
      .sans { font-family: Inter, "Segoe UI", Arial, sans-serif; }
    </style>
  </defs>

  <rect x="1" y="1" width="1398" height="398" rx="22" fill="url(#canvas)" stroke="#D7D1C6"/>

  <g class="mono" font-size="13" letter-spacing="2.1">
    <text x="64" y="55" fill="#191815">KG</text>
    <text x="96" y="55" fill="#7D6C5D">/ 01</text>
    <text x="1336" y="55" text-anchor="end" fill="#746F66">TÜRKİYE</text>
  </g>

  <line x1="64" y1="80" x2="1336" y2="80" stroke="#D7D1C6"/>

  <text x="64" y="188" class="serif" font-size="76" fill="#191815" letter-spacing="-1.8">Kaan Güner</text>
  <text x="68" y="231" class="mono" font-size="16" fill="#7D6C5D" letter-spacing="2.2">COMPUTER ENGINEERING · AI &amp; DATA SYSTEMS</text>

  <text x="66" y="297" class="sans" font-size="20" fill="#393630">
    Building reliable systems around real-world data — from signal to decision.
  </text>

  <g class="mono" font-size="12.5" fill="#746F66" letter-spacing="1.7">
    <text x="66" y="353">AI SYSTEMS</text>
    <circle cx="190" cy="349" r="2" fill="#7D6C5D"/>
    <text x="210" y="353">DATA ENGINEERING</text>
    <circle cx="381" cy="349" r="2" fill="#7D6C5D"/>
    <text x="401" y="353">BACKEND</text>
  </g>

  <line x1="925" y1="112" x2="925" y2="350" stroke="#D7D1C6"/>

  <g transform="translate(1018 119)">
    <polygon points="0,105 110,0 219,105 110,211" fill="#7D6C5D" opacity="0.08"/>
    <polygon points="0,105 110,0 110,105" fill="#7D6C5D" opacity="0.16"/>
    <polygon points="110,105 219,105 110,211" fill="#191815" opacity="0.07"/>
    <path d="M0 105L110 0L219 105L110 211L0 105ZM0 105H219M110 0V211" fill="none" stroke="#A79B8D" stroke-width="1"/>
    <circle cx="110" cy="105" r="5" fill="#7D6C5D"/>
    <circle cx="0" cy="105" r="3" fill="#191815"/>
    <circle cx="219" cy="105" r="3" fill="#191815"/>
  </g>
</svg>
