<svg xmlns="http://www.w3.org/2000/svg" width="800" height="245.714" viewBox="0 0 1400 430" role="img" aria-labelledby="title desc">
  <title id="title">Kaan Güner — Computer Engineering, AI and Data Systems</title>
  <desc id="desc">An editorial profile header with a black origami crane, rose, and computer.</desc>
  <defs>
    <linearGradient id="canvas" x1="0" y1="0" x2="1" y2="1"><stop offset="0" stop-color="#F8F6F1"/><stop offset="1" stop-color="#F1EDE5"/></linearGradient>
    <linearGradient id="blackPaper" x1="0" y1="0" x2="1" y2="1"><stop offset="0" stop-color="#050505"/><stop offset="0.55" stop-color="#171717"/><stop offset="1" stop-color="#34312E"/></linearGradient>
    <filter id="shadow" x="-30%" y="-30%" width="180%" height="180%"><feDropShadow dx="0" dy="12" stdDeviation="11" flood-color="#000000" flood-opacity="0.15"/></filter>
    <style>.serif{font-family:Georgia,"Times New Roman",serif}.mono{font-family:"SFMono-Regular","Cascadia Code","JetBrains Mono",monospace}.sans{font-family:Inter,"Segoe UI",Arial,sans-serif}</style>
  </defs>
  <rect x="1" y="1" width="1398" height="428" rx="22" fill="url(#canvas)" stroke="#D7D1C6"/>
  <g class="mono" font-size="13" letter-spacing="2.1"><text x="64" y="55" fill="#191815">KG</text><text x="96" y="55" fill="#7D6C5D">/ 01</text><text x="1336" y="55" text-anchor="end" fill="#746F66">TÜRKİYE</text></g>
  <line x1="64" y1="80" x2="1336" y2="80" stroke="#D7D1C6"/>
  <text x="64" y="188" class="serif" font-size="76" fill="#191815" letter-spacing="-1.8">Kaan Güner</text>
  <text x="68" y="231" class="mono" font-size="16" fill="#7D6C5D" letter-spacing="2.2">COMPUTER ENGINEERING · AI &amp; DATA SYSTEMS</text>
  <text x="66" y="297" class="sans" font-size="20" fill="#393630">Building reliable systems around real-world data — from signal to decision.</text>
  <g class="mono" font-size="12.5" fill="#746F66" letter-spacing="1.7"><text x="66" y="362">AI SYSTEMS</text><circle cx="190" cy="358" r="2" fill="#7D6C5D"/><text x="210" y="362">DATA ENGINEERING</text><circle cx="381" cy="358" r="2" fill="#7D6C5D"/><text x="401" y="362">BACKEND</text></g>
  <line x1="925" y1="108" x2="925" y2="385" stroke="#D7D1C6"/>
  <g transform="translate(974 103) scale(.72)" filter="url(#shadow)">
    <polygon points="0,62 64,10 48,78" fill="#171717"/><polygon points="48,78 112,24 92,88" fill="#34312E"/><polygon points="48,78 99,118 77,84" fill="#080808"/><polygon points="48,78 5,116 27,70" fill="#4A4641"/><polygon points="92,88 148,112 101,122" fill="#1C1B19"/><polygon points="64,10 80,54 48,78" fill="#050505"/><path d="M111 24l28-21" stroke="#111" stroke-width="4"/>
  </g>
  <g transform="translate(1210 94) scale(.63)" filter="url(#shadow)">
    <polygon points="76,0 117,26 109,72 78,102 39,84 16,45 38,13" fill="#111"/><polygon points="76,0 81,38 117,26" fill="#34312E"/><polygon points="81,38 109,72 78,102" fill="#080808"/><polygon points="81,38 39,84 16,45" fill="#262422"/><polygon points="38,13 81,38 16,45" fill="#46413D"/><polygon points="81,38 38,13 76,0" fill="#151515"/><polygon points="81,38 117,26 109,72" fill="#302E2B"/><polyline points="72,102 62,160 86,214" fill="none" stroke="#171717" stroke-width="8"/><polygon points="64,148 15,122 55,174" fill="#1C1B19"/><polygon points="84,188 132,154 96,208" fill="#34312E"/>
  </g>
  <g transform="translate(986 235) scale(.64)" filter="url(#shadow)">
    <polygon points="30,0 245,36 220,168 0,132" fill="url(#blackPaper)"/><polygon points="0,132 220,168 302,205 72,174" fill="#111"/><polygon points="72,174 302,205 274,223 43,192" fill="#34312E"/><path d="M31 14L220 47M20 126L218 158M116 18L108 145" stroke="#66605A" stroke-width="1" opacity=".48"/><g fill="#4A4641"><rect x="94" y="165" width="19" height="8" rx="1"/><rect x="118" y="168" width="19" height="8" rx="1"/><rect x="142" y="171" width="19" height="8" rx="1"/><rect x="166" y="174" width="19" height="8" rx="1"/><rect x="190" y="177" width="19" height="8" rx="1"/></g>
  </g>
  <text x="1334" y="398" text-anchor="end" class="mono" font-size="10.5" fill="#746F66" letter-spacing="1.8">ORIGAMI / DATA / SYSTEMS</text>
</svg>
