<svg xmlns="http://www.w3.org/2000/svg" width="800" height="177.143" viewBox="0 0 1400 310" role="img" aria-labelledby="title desc">
  <title id="title">Industrial Water Anomaly Detection</title><desc id="desc">Featured private research and development project for predictive warnings from industrial sensor data.</desc>
  <defs><linearGradient id="dark" x1="0" y1="0" x2="1" y2="1"><stop offset="0" stop-color="#141311"/><stop offset="1" stop-color="#24211E"/></linearGradient><style>.serif{font-family:Georgia,"Times New Roman",serif}.mono{font-family:"SFMono-Regular","Cascadia Code",monospace}.sans{font-family:Inter,"Segoe UI",Arial,sans-serif}</style></defs>
  <rect x="1" y="1" width="1398" height="308" rx="18" fill="url(#dark)" stroke="#3B3732"/>
  <text x="52" y="47" class="mono" font-size="16" fill="#BDAA98" letter-spacing="1.8">01 / FEATURED · PRIVATE R&amp;D</text>
  <text x="52" y="108" class="serif" font-size="43" fill="#F8F6F1">Industrial Water</text><text x="52" y="157" class="serif" font-size="43" fill="#F8F6F1">Anomaly Detection</text>
  <text x="54" y="199" class="sans" font-size="20" fill="#BDB6AC">Early warnings from real on-site IoT sensor streams.</text><line x1="54" y1="226" x2="576" y2="226" stroke="#45403A"/><text x="54" y="264" class="mono" font-size="15" fill="#BDB6AC" letter-spacing=".5">TIME SERIES · FASTAPI · REDIS · DOCKER</text>
  <line x1="630" y1="42" x2="630" y2="268" stroke="#45403A"/><text x="688" y="58" class="mono" font-size="14" fill="#8F877E" letter-spacing="1.6">SYSTEM FLOW</text>
  <g transform="translate(688 99)">
    <g><rect width="142" height="86" rx="10" fill="#2D2A27" stroke="#4A4540"/><text x="16" y="27" class="mono" font-size="12" fill="#BDAA98">01</text><text x="16" y="54" class="mono" font-size="14" fill="#F8F6F1">SENSORS</text><text x="16" y="75" class="sans" font-size="13" fill="#9F978E">live stream</text></g>
    <g transform="translate(174)"><rect width="142" height="86" rx="10" fill="#2D2A27" stroke="#4A4540"/><text x="16" y="27" class="mono" font-size="12" fill="#BDAA98">02</text><text x="16" y="54" class="mono" font-size="14" fill="#F8F6F1">FEATURES</text><text x="16" y="75" class="sans" font-size="13" fill="#9F978E">lags · windows</text></g>
    <g transform="translate(348)"><rect width="142" height="86" rx="10" fill="#2D2A27" stroke="#4A4540"/><text x="16" y="27" class="mono" font-size="12" fill="#BDAA98">03</text><text x="16" y="54" class="mono" font-size="14" fill="#F8F6F1">MODELS</text><text x="16" y="75" class="sans" font-size="13" fill="#9F978E">ML + rules</text></g>
    <g transform="translate(522)"><rect width="142" height="86" rx="10" fill="#F0ECE5"/><text x="16" y="27" class="mono" font-size="12" fill="#7D6C5D">04</text><text x="16" y="54" class="mono" font-size="14" fill="#191815">WARNING</text><text x="16" y="75" class="sans" font-size="13" fill="#746F66">time-to-alarm</text></g>
    <g stroke="#BDAA98" fill="none"><path d="M142 43h32"/><path d="M316 43h32"/><path d="M490 43h32"/></g><g fill="#BDAA98"><path d="M168 39l7 4-7 4z"/><path d="M342 39l7 4-7 4z"/><path d="M516 39l7 4-7 4z"/></g>
  </g>
  <text x="688" y="240" class="sans" font-size="15" fill="#9F978E">Forecast · aggregate risk · warn before threshold</text>
</svg>
