<svg xmlns="http://www.w3.org/2000/svg" width="1400" height="480" viewBox="0 0 1400 480" role="img" aria-labelledby="t d">
  <title id="t">Languages and technologies</title>
  <desc id="d">Technology groups: languages, AI and data, backend and databases, delivery.</desc>
  <defs>
    <linearGradient id="bg" x1="0" y1="0" x2="1" y2="1"><stop offset="0" stop-color="#0B0F1A"/><stop offset="1" stop-color="#0E1524"/></linearGradient>
    <style>.mono{font-family:"SFMono-Regular","Cascadia Code","JetBrains Mono",ui-monospace,monospace}.disp{font-family:"Trebuchet MS",Verdana,Inter,"Segoe UI",Arial,sans-serif;font-weight:700}</style>
  </defs>
  <rect width="1400" height="480" rx="20" fill="url(#bg)"/>
  <rect x="1" y="1" width="1398" height="478" rx="20" fill="none" stroke="#1E293B"/>
  <g class="mono">
    <rect x="30" y="30" width="660" height="200" rx="16" fill="#0E1422" stroke="#22D3EE" stroke-opacity="0.30"/>
    <rect x="30" y="30" width="6" height="200" rx="3" fill="#22D3EE"/>
    <text x="54" y="76" class="disp" font-size="24" fill="#ECFEFF">LANGUAGES</text>
    <circle cx="662" cy="68" r="5" fill="#22D3EE"><animate attributeName="opacity" values="1;0.2;1" dur="2s" repeatCount="indefinite"/></circle>
    <g font-size="15"><rect x="54" y="108" width="81" height="32" rx="9" fill="#22D3EE" fill-opacity="0.10" stroke="#22D3EE" stroke-opacity="0.4"/><text x="66" y="129" fill="#67E8F9">Python</text><rect x="145" y="108" width="119" height="32" rx="9" fill="#22D3EE" fill-opacity="0.10" stroke="#22D3EE" stroke-opacity="0.4"/><text x="157" y="129" fill="#67E8F9">JavaScript</text><rect x="274" y="108" width="119" height="32" rx="9" fill="#22D3EE" fill-opacity="0.10" stroke="#22D3EE" stroke-opacity="0.4"/><text x="286" y="129" fill="#67E8F9">TypeScript</text><rect x="403" y="108" width="52" height="32" rx="9" fill="#22D3EE" fill-opacity="0.10" stroke="#22D3EE" stroke-opacity="0.4"/><text x="415" y="129" fill="#67E8F9">SQL</text><rect x="466" y="108" width="34" height="32" rx="9" fill="#22D3EE" fill-opacity="0.10" stroke="#22D3EE" stroke-opacity="0.4"/><text x="478" y="129" fill="#67E8F9">C</text></g>
  </g>
  <g class="mono">
    <rect x="710" y="30" width="660" height="200" rx="16" fill="#0E1422" stroke="#F472B6" stroke-opacity="0.30"/>
    <rect x="710" y="30" width="6" height="200" rx="3" fill="#F472B6"/>
    <text x="734" y="76" class="disp" font-size="24" fill="#ECFEFF">AI &amp; DATA</text>
    <circle cx="1342" cy="68" r="5" fill="#F472B6"><animate attributeName="opacity" values="1;0.2;1" dur="2s" repeatCount="indefinite"/></circle>
    <g font-size="15"><rect x="734" y="108" width="81" height="32" rx="9" fill="#F472B6" fill-opacity="0.10" stroke="#F472B6" stroke-opacity="0.4"/><text x="746" y="129" fill="#F9A8D4">Pandas</text><rect x="825" y="108" width="138" height="32" rx="9" fill="#F472B6" fill-opacity="0.10" stroke="#F472B6" stroke-opacity="0.4"/><text x="837" y="129" fill="#F9A8D4">Scikit-learn</text><rect x="973" y="108" width="90" height="32" rx="9" fill="#F472B6" fill-opacity="0.10" stroke="#F472B6" stroke-opacity="0.4"/><text x="985" y="129" fill="#F9A8D4">XGBoost</text><rect x="1074" y="108" width="100" height="32" rx="9" fill="#F472B6" fill-opacity="0.10" stroke="#F472B6" stroke-opacity="0.4"/><text x="1086" y="129" fill="#F9A8D4">LightGBM</text><rect x="1184" y="108" width="100" height="32" rx="9" fill="#F472B6" fill-opacity="0.10" stroke="#F472B6" stroke-opacity="0.4"/><text x="1196" y="129" fill="#F9A8D4">CatBoost</text><rect x="1294" y="108" width="72" height="32" rx="9" fill="#F472B6" fill-opacity="0.10" stroke="#F472B6" stroke-opacity="0.4"/><text x="1306" y="129" fill="#F9A8D4">NumPy</text></g>
  </g>
  <g class="mono">
    <rect x="30" y="250" width="660" height="200" rx="16" fill="#0E1422" stroke="#A3E635" stroke-opacity="0.30"/>
    <rect x="30" y="250" width="6" height="200" rx="3" fill="#A3E635"/>
    <text x="54" y="296" class="disp" font-size="24" fill="#ECFEFF">BACKEND &amp; DB</text>
    <circle cx="662" cy="288" r="5" fill="#A3E635"><animate attributeName="opacity" values="1;0.2;1" dur="2s" repeatCount="indefinite"/></circle>
    <g font-size="15"><rect x="54" y="328" width="90" height="32" rx="9" fill="#A3E635" fill-opacity="0.10" stroke="#A3E635" stroke-opacity="0.4"/><text x="66" y="349" fill="#BEF264">FastAPI</text><rect x="154" y="328" width="90" height="32" rx="9" fill="#A3E635" fill-opacity="0.10" stroke="#A3E635" stroke-opacity="0.4"/><text x="166" y="349" fill="#BEF264">Node.js</text><rect x="255" y="328" width="90" height="32" rx="9" fill="#A3E635" fill-opacity="0.10" stroke="#A3E635" stroke-opacity="0.4"/><text x="267" y="349" fill="#BEF264">Express</text><rect x="356" y="328" width="119" height="32" rx="9" fill="#A3E635" fill-opacity="0.10" stroke="#A3E635" stroke-opacity="0.4"/><text x="368" y="349" fill="#BEF264">PostgreSQL</text><rect x="484" y="328" width="72" height="32" rx="9" fill="#A3E635" fill-opacity="0.10" stroke="#A3E635" stroke-opacity="0.4"/><text x="496" y="349" fill="#BEF264">MySQL</text><rect x="566" y="328" width="72" height="32" rx="9" fill="#A3E635" fill-opacity="0.10" stroke="#A3E635" stroke-opacity="0.4"/><text x="578" y="349" fill="#BEF264">Redis</text></g>
  </g>
  <g class="mono">
    <rect x="710" y="250" width="660" height="200" rx="16" fill="#0E1422" stroke="#A78BFA" stroke-opacity="0.30"/>
    <rect x="710" y="250" width="6" height="200" rx="3" fill="#A78BFA"/>
    <text x="734" y="296" class="disp" font-size="24" fill="#ECFEFF">DELIVERY</text>
    <circle cx="1342" cy="288" r="5" fill="#A78BFA"><animate attributeName="opacity" values="1;0.2;1" dur="2s" repeatCount="indefinite"/></circle>
    <g font-size="15"><rect x="734" y="328" width="81" height="32" rx="9" fill="#A78BFA" fill-opacity="0.10" stroke="#A78BFA" stroke-opacity="0.4"/><text x="746" y="349" fill="#C4B5FD">Docker</text><rect x="825" y="328" width="52" height="32" rx="9" fill="#A78BFA" fill-opacity="0.10" stroke="#A78BFA" stroke-opacity="0.4"/><text x="837" y="349" fill="#C4B5FD">Git</text><rect x="888" y="328" width="72" height="32" rx="9" fill="#A78BFA" fill-opacity="0.10" stroke="#A78BFA" stroke-opacity="0.4"/><text x="900" y="349" fill="#C4B5FD">Linux</text><rect x="969" y="328" width="100" height="32" rx="9" fill="#A78BFA" fill-opacity="0.10" stroke="#A78BFA" stroke-opacity="0.4"/><text x="981" y="349" fill="#C4B5FD">Supabase</text><rect x="1079" y="328" width="62" height="32" rx="9" fill="#A78BFA" fill-opacity="0.10" stroke="#A78BFA" stroke-opacity="0.4"/><text x="1091" y="349" fill="#C4B5FD">REST</text></g>
  </g>
</svg>
