<svg xmlns="http://www.w3.org/2000/svg" width="1400" height="480" viewBox="0 0 1400 480" role="img" aria-labelledby="t d">
  <title id="t">Languages and technologies</title>
  <desc id="d">Technology groups: languages, AI and data, backend and databases, delivery.</desc>
  <defs><linearGradient id="bg" x1="0" y1="0" x2="1" y2="1"><stop offset="0" stop-color="#0A0E17"/><stop offset="1" stop-color="#0C1320"/></linearGradient><style>.mono{font-family:"SFMono-Regular","Cascadia Code","JetBrains Mono",ui-monospace,monospace}.disp{font-family:"Trebuchet MS",Verdana,Inter,"Segoe UI",Arial,sans-serif;font-weight:700}</style></defs>
  <rect width="1400" height="480" rx="20" fill="url(#bg)"/>
  <rect x="1" y="1" width="1398" height="478" rx="20" fill="none" stroke="#1B2537"/>
  <g class="mono">
    <rect x="30" y="30" width="660" height="200" rx="16" fill="#0C111C" stroke="#1B2537"/>
    <rect x="30" y="30" width="5" height="200" rx="2.5" fill="#38BDF8"><animate attributeName="opacity" values="0.9;0.4;0.9" dur="3.5s" repeatCount="indefinite"/></rect>
    <text x="56" y="76" class="disp" font-size="23" fill="#E5EEF5">LANGUAGES</text>
    <circle cx="662" cy="68" r="4.5" fill="#38BDF8"><animate attributeName="opacity" values="1;0.2;1" dur="2.4s" begin="0.0s" repeatCount="indefinite"/></circle>
    <g font-size="15"><rect x="54" y="108" width="79" height="32" rx="9" fill="#131C2B" stroke="#2A3A4A"/><text x="66" y="129" fill="#AEBACB">Python</text><rect x="143" y="108" width="116" height="32" rx="9" fill="#131C2B" stroke="#2A3A4A"/><text x="155" y="129" fill="#AEBACB">JavaScript</text><rect x="269" y="108" width="116" height="32" rx="9" fill="#131C2B" stroke="#2A3A4A"/><text x="281" y="129" fill="#AEBACB">TypeScript</text><rect x="395" y="108" width="52" height="32" rx="9" fill="#131C2B" stroke="#2A3A4A"/><text x="407" y="129" fill="#AEBACB">SQL</text><rect x="457" y="108" width="33" height="32" rx="9" fill="#131C2B" stroke="#2A3A4A"/><text x="469" y="129" fill="#AEBACB">C</text></g>
  </g>
  <g class="mono">
    <rect x="710" y="30" width="660" height="200" rx="16" fill="#0C111C" stroke="#1B2537"/>
    <rect x="710" y="30" width="5" height="200" rx="2.5" fill="#F472B6"><animate attributeName="opacity" values="0.9;0.4;0.9" dur="3.9s" repeatCount="indefinite"/></rect>
    <text x="736" y="76" class="disp" font-size="23" fill="#E5EEF5">AI &amp; DATA</text>
    <circle cx="1342" cy="68" r="4.5" fill="#F472B6"><animate attributeName="opacity" values="1;0.2;1" dur="2.4s" begin="0.3s" repeatCount="indefinite"/></circle>
    <g font-size="15"><rect x="734" y="108" width="79" height="32" rx="9" fill="#131C2B" stroke="#2A3A4A"/><text x="746" y="129" fill="#AEBACB">Pandas</text><rect x="823" y="108" width="134" height="32" rx="9" fill="#131C2B" stroke="#2A3A4A"/><text x="835" y="129" fill="#AEBACB">Scikit-learn</text><rect x="968" y="108" width="88" height="32" rx="9" fill="#131C2B" stroke="#2A3A4A"/><text x="980" y="129" fill="#AEBACB">XGBoost</text><rect x="1066" y="108" width="98" height="32" rx="9" fill="#131C2B" stroke="#2A3A4A"/><text x="1078" y="129" fill="#AEBACB">LightGBM</text><rect x="1174" y="108" width="98" height="32" rx="9" fill="#131C2B" stroke="#2A3A4A"/><text x="1186" y="129" fill="#AEBACB">CatBoost</text><rect x="1281" y="108" width="70" height="32" rx="9" fill="#131C2B" stroke="#2A3A4A"/><text x="1293" y="129" fill="#AEBACB">NumPy</text></g>
  </g>
  <g class="mono">
    <rect x="30" y="250" width="660" height="200" rx="16" fill="#0C111C" stroke="#1B2537"/>
    <rect x="30" y="250" width="5" height="200" rx="2.5" fill="#34D399"><animate attributeName="opacity" values="0.9;0.4;0.9" dur="4.3s" repeatCount="indefinite"/></rect>
    <text x="56" y="296" class="disp" font-size="23" fill="#E5EEF5">BACKEND &amp; DB</text>
    <circle cx="662" cy="288" r="4.5" fill="#34D399"><animate attributeName="opacity" values="1;0.2;1" dur="2.4s" begin="0.6s" repeatCount="indefinite"/></circle>
    <g font-size="15"><rect x="54" y="328" width="88" height="32" rx="9" fill="#131C2B" stroke="#2A3A4A"/><text x="66" y="349" fill="#AEBACB">FastAPI</text><rect x="152" y="328" width="88" height="32" rx="9" fill="#131C2B" stroke="#2A3A4A"/><text x="164" y="349" fill="#AEBACB">Node.js</text><rect x="251" y="328" width="88" height="32" rx="9" fill="#131C2B" stroke="#2A3A4A"/><text x="263" y="349" fill="#AEBACB">Express</text><rect x="349" y="328" width="116" height="32" rx="9" fill="#131C2B" stroke="#2A3A4A"/><text x="361" y="349" fill="#AEBACB">PostgreSQL</text><rect x="475" y="328" width="70" height="32" rx="9" fill="#131C2B" stroke="#2A3A4A"/><text x="487" y="349" fill="#AEBACB">MySQL</text><rect x="555" y="328" width="70" height="32" rx="9" fill="#131C2B" stroke="#2A3A4A"/><text x="567" y="349" fill="#AEBACB">Redis</text></g>
  </g>
  <g class="mono">
    <rect x="710" y="250" width="660" height="200" rx="16" fill="#0C111C" stroke="#1B2537"/>
    <rect x="710" y="250" width="5" height="200" rx="2.5" fill="#A78BFA"><animate attributeName="opacity" values="0.9;0.4;0.9" dur="4.7s" repeatCount="indefinite"/></rect>
    <text x="736" y="296" class="disp" font-size="23" fill="#E5EEF5">DELIVERY</text>
    <circle cx="1342" cy="288" r="4.5" fill="#A78BFA"><animate attributeName="opacity" values="1;0.2;1" dur="2.4s" begin="0.8999999999999999s" repeatCount="indefinite"/></circle>
    <g font-size="15"><rect x="734" y="328" width="79" height="32" rx="9" fill="#131C2B" stroke="#2A3A4A"/><text x="746" y="349" fill="#AEBACB">Docker</text><rect x="823" y="328" width="52" height="32" rx="9" fill="#131C2B" stroke="#2A3A4A"/><text x="835" y="349" fill="#AEBACB">Git</text><rect x="885" y="328" width="70" height="32" rx="9" fill="#131C2B" stroke="#2A3A4A"/><text x="897" y="349" fill="#AEBACB">Linux</text><rect x="965" y="328" width="98" height="32" rx="9" fill="#131C2B" stroke="#2A3A4A"/><text x="977" y="349" fill="#AEBACB">Supabase</text><rect x="1072" y="328" width="61" height="32" rx="9" fill="#131C2B" stroke="#2A3A4A"/><text x="1084" y="349" fill="#AEBACB">REST</text></g>
  </g>
</svg>
